<?xml version="1.0" encoding="UTF-8"?>
<svg id="Layer_1" data-name="Layer 1" xmlns="http://www.w3.org/2000/svg" viewBox="0 0 100 100">
  <defs>
    <style>
      .cls-1 {
        fill: #300;
      }

      .cls-1, .cls-2 {
        stroke-width: 0px;
      }

      .cls-2 {
        fill: #ff9a00;
      }
    </style>
  </defs>
  <g>
    <rect class="cls-1" x="2" y="2" width="96" height="96" rx="18" ry="18"/>
    <path class="cls-2" d="M80,4c8.82,0,16,7.18,16,16v60c0,8.82-7.18,16-16,16H20c-8.82,0-16-7.18-16-16V20c0-8.82,7.18-16,16-16h60M80,0H20C9,0,0,9,0,20v60c0,11,9,20,20,20h60c11,0,20-9,20-20V20c0-11-9-20-20-20h0Z"/>
  </g>
  <g id="Layer_2" data-name="Layer 2">
    <g id="Outlined_Mnemonics_Logos" data-name="Outlined Mnemonics Logos">
      <g id="Ai">
        <path class="cls-2" d="M48.46,60h-15.5l-3.17,10.04c-.08.38-.42.64-.79.6h-7.83c-.46,0-.58-.26-.46-.77l13.42-39.62c.13-.43.25-.9.42-1.41.17-.9.25-1.84.25-2.78-.04-.21.13-.43.33-.47h10.79c.33,0,.5.13.54.34l15.21,44.02c.13.47,0,.68-.42.68h-8.71c-.29.04-.58-.17-.67-.47l-3.42-10.17ZM35.38,51.32h10.58c-.25-.9-.58-1.97-.96-3.08-.38-1.15-.75-2.39-1.12-3.68-.42-1.32-.79-2.61-1.21-3.93s-.79-2.56-1.12-3.8c-.33-1.2-.62-2.31-.92-3.33h-.08c-.38,1.84-.83,3.68-1.42,5.51-.62,2.05-1.25,4.19-1.92,6.32-.58,2.18-1.21,4.19-1.83,5.98h0Z"/>
        <path class="cls-2" d="M70.75,32.91c-1.38.04-2.71-.51-3.71-1.5-.96-1.07-1.46-2.48-1.42-3.93-.04-1.45.5-2.82,1.5-3.8,1-.98,2.33-1.5,3.71-1.5,1.62,0,2.87.51,3.79,1.5.92,1.03,1.42,2.39,1.38,3.8.04,1.45-.46,2.86-1.46,3.93-.96,1.03-2.38,1.58-3.79,1.5ZM66.08,70v-32.91c0-.43.17-.6.54-.6h8.25c.37,0,.54.21.54.6v32.91c0,.47-.17.68-.54.68h-8.17c-.42,0-.62-.26-.62-.68Z"/>
      </g>
    </g>
  </g>
</svg>