<?xml version="1.0" encoding="UTF-8"?>
<svg id="Layer_1" data-name="Layer 1" xmlns="http://www.w3.org/2000/svg" viewBox="0 0 100 100">
  <defs>
    <style>
      .cls-1 {
        fill: #001e36;
      }

      .cls-1, .cls-2 {
        stroke-width: 0px;
      }

      .cls-2 {
        fill: #31a8ff;
      }
    </style>
  </defs>
  <g>
    <rect class="cls-1" x="2" y="2" width="96" height="96" rx="18" ry="18"/>
    <path class="cls-2" d="M80,4c8.82,0,16,7.18,16,16v60c0,8.82-7.18,16-16,16H20c-8.82,0-16-7.18-16-16V20c0-8.82,7.18-16,16-16h60M80,0H20C9,0,0,9,0,20v60c0,11,9,20,20,20h60c11,0,20-9,20-20V20c0-11-9-20-20-20h0Z"/>
  </g>
  <g id="Outlined_Mnemonics_Logos" data-name="Outlined Mnemonics Logos">
    <g id="Ps">
      <path class="cls-2" d="M19.96,71.59V27.62c0-.32.13-.48.4-.48.71,0,1.37-.01,2.35-.03.98-.02,2.05-.05,3.19-.07,1.14-.02,2.35-.05,3.62-.07,1.27-.02,2.54-.03,3.79-.03,3.4,0,6.26.44,8.59,1.31,2.1.73,4.01,1.93,5.6,3.51,1.35,1.37,2.39,3.03,3.05,4.85.63,1.78.95,3.65.94,5.54,0,3.67-.83,6.7-2.48,9.08-1.67,2.39-4.01,4.21-6.71,5.19-2.82,1.08-5.95,1.44-9.39,1.44-.98,0-1.68-.01-2.08-.03-.4-.02-1.01-.03-1.81-.03v13.73c.04.3-.16.58-.45.62-.05,0-.1,0-.15,0h-7.99c-.31,0-.47-.18-.47-.55ZM29.02,35.4v14.34c.58.05,1.12.07,1.61.07h2.21c1.63,0,3.25-.27,4.8-.79,1.33-.4,2.52-1.19,3.42-2.27.87-1.05,1.31-2.52,1.31-4.4.04-1.33-.3-2.64-.97-3.78-.7-1.1-1.72-1.96-2.92-2.44-1.56-.62-3.22-.91-4.9-.86-1.07,0-2.02.01-2.85.03-.83.02-1.4.06-1.71.1h0Z"/>
      <path class="cls-2" d="M77.43,47.13c-1.26-.66-2.6-1.15-3.99-1.44-1.53-.36-3.09-.54-4.66-.55-.85-.02-1.7.08-2.52.31-.52.12-.98.42-1.31.86-.22.35-.33.75-.34,1.17.01.4.15.79.4,1.1.39.47.87.86,1.41,1.14.96.53,1.94,1,2.95,1.41,2.25.77,4.4,1.82,6.41,3.13,1.36.88,2.49,2.1,3.29,3.54.67,1.37,1,2.88.97,4.4.04,2.02-.52,4-1.61,5.68-1.17,1.7-2.78,3.03-4.66,3.82-2.04.92-4.55,1.38-7.55,1.38-1.9.02-3.8-.16-5.67-.55-1.47-.28-2.9-.74-4.26-1.38-.3-.16-.48-.48-.47-.83v-7.43c-.02-.15.05-.29.17-.38.12-.07.26-.05.37.03,1.6.97,3.35,1.68,5.17,2.1,1.6.41,3.25.63,4.9.65,1.56,0,2.72-.21,3.45-.62.68-.32,1.11-1.02,1.11-1.79,0-.6-.34-1.17-1.01-1.72-.67-.55-2.03-1.22-4.09-2-2.11-.75-4.1-1.79-5.94-3.1-1.31-.94-2.39-2.17-3.15-3.61-.66-1.36-.99-2.85-.97-4.37,0-1.82.48-3.61,1.41-5.16,1.05-1.71,2.57-3.07,4.36-3.92,1.97-1.01,4.43-1.51,7.38-1.51,1.73-.01,3.46.11,5.17.38,1.24.16,2.45.5,3.6,1,.18.05.33.19.4.38.05.17.07.34.07.52v6.95c0,.16-.07.32-.2.41-.18.09-.4.09-.58,0Z"/>
    </g>
  </g>
</svg>