<?xml version="1.0" encoding="UTF-8"?>
<svg id="Layer_1" data-name="Layer 1" xmlns="http://www.w3.org/2000/svg" viewBox="0 0 100 100">
  <defs>
    <style>
      .cls-1 {
        fill: #3b3c38;
      }

      .cls-1, .cls-2 {
        stroke-width: 0px;
      }

      .cls-2 {
        fill: #f4d44b;
      }
    </style>
  </defs>
  <g>
    <rect class="cls-1" x="2" y="2" width="96" height="96" rx="18" ry="18"/>
    <path class="cls-2" d="M80,4c8.82,0,16,7.18,16,16v60c0,8.82-7.18,16-16,16H20c-8.82,0-16-7.18-16-16V20c0-8.82,7.18-16,16-16h60M80,0H20C9,0,0,9,0,20v60c0,11,9,20,20,20h60c11,0,20-9,20-20V20c0-11-9-20-20-20h0Z"/>
  </g>
  <path class="cls-2" d="M40.38,11.51c-2.92,2.12-5.98,4.05-9.15,5.77v.58c.32-.06.63-.18.9-.35.4,0,.64.12.64.51l.64-.35h.32v.28c-1.94,1.91-4.1,3.59-6.43,5l.35.55h-.32l-.67-.23c0,.2-.28.32-.9.35v.32l.7.78c-.32,0-.64-.08-.93-.2-1.74.37-3.23,1.47-4.09,3.03l.35.55c.59-.64,1.28-1.18,2.04-1.61l.08.86c-.32.06-.63.18-.9.35l.75,1.1c1.37-1.5,2.94-2.81,4.66-3.89.86.23,1.29.47,1.29.78h.64c4.14-3.16,8.75-5.66,13.66-7.39v.59c-.86,1.26-1.41,1.88-1.72,1.93.04.41.19.8.43,1.13-1.62,5.31-3.67,10.49-6.11,15.48-6.85,16.91-14.76,33.38-23.67,49.31.06.31.18.6.35.86,1.07-.17,2.1-.56,3.03-1.13h.35v.59h.59l.66-.46c0,.2.23.28.64.23v.59c-.08.98-.44,1.92-1.02,2.71-.96,1.39-1.67,2.95-2.08,4.59v.28h.59c2.32-2.53,4.29-5.38,5.85-8.44,5.93-1.59,11.69-3.77,17.2-6.48,3.27-.09,6.43-1.17,9.07-3.1v-.32l-1.49.43h-.35v-.32c2.13-.17,4.19-.84,6.02-1.96,5.69-4.39,9.96-7.5,12.9-9.35,9-6.6,13.23-12.96,12.73-19-1.64-2.73-3.63-5.22-5.93-7.42-.08-.86,1.29-2,4.04-3.58l7.81-6.88c2.05-3.24,3.14-7,3.14-10.83l-.16-1.17c-.32-3.49-2.83-6.32-7.62-8.48-4.7-2.34-9.94-3.38-15.17-3.03-8.14,1.09-16.1,3.25-23.68,6.43h-.04ZM47.26,36.2c.59-3.21,1.26-5.06,2-5.49l6.52-14.62c-.08-.9,1.29-1.61,4.16-2.08l.94-.08.08.86c2.83-.43,4.56-.67,5.22-.75,5.14-.43,7.85.59,8.09,3.14h.59l-.12-1.49h.64c1.3.51,2.23,1.68,2.43,3.06-.04,1.15-.52,2.24-1.33,3.06-.4,0-.64-.23-.67-.86h-.64l-.15,1.77c-2.63,3.93-4.5,5.93-5.69,6.02-1.06,1.45-1.73,2.2-2,2.25-2.05,1.94-4.31,3.62-6.75,5.03-4.65,1.38-9.19,3.14-13.55,5.26-.39-.19-.83-.26-1.26-.2v-.56c.04-1.56.57-3.07,1.53-4.3l-.04-.02ZM26.04,25.13v.28c-.32.06-.63.18-.9.35h-.32v-.55l1.22-.08ZM44.94,24.7l.08.86c-.28,0-.67.43-1.13,1.26v-.6c.44-.41.74-.94.86-1.53h.2ZM42.04,30.8l.12,1.18h-.32l-.09-1.17h.3ZM41.3,32.93c-.08.96-.32,1.49-.86,1.53h-.32c.3-.44.47-.96.51-1.49l.67-.04ZM40.01,35.99v.28l-.55.94h-.59v-.26c.43.05.82-.25.87-.68.01-.09,0-.18-.01-.27h.28v-.02ZM38.68,38.74l-.15,1.45h-.32l-.12-1.45h.59ZM45.55,43.13v.55l-1.22.12v-.55l1.22-.12ZM39.71,51.55c5.75-.94,11.35-2.6,16.68-4.94l1.85-.15c3.05-.55,6.19.26,8.6,2.2l.12,1.18c-1.41,4.09-2.98,6.43-4.67,7.19l-7.85,6.24c-3.01,2.16-6.17,4.11-9.46,5.81-5.4,3.43-11.24,6.12-17.36,7.97h-.35c.32-1.1,4.44-9.58,12.45-25.53v.04ZM48.19,48.21v.28l-1.26.12v-.28l1.26-.12ZM28.64,67.17c-.4,2-.86,3.03-1.26,3.06v-.28c-.05-1.08.43-2.12,1.29-2.79h-.03ZM36.49,78.25c6.58-2.6,12.88-5.9,18.77-9.82v.55c0,.23-.86.96-2.63,2.28-3.25,1.39-6.33,3.15-9.19,5.22-5.66,1.96-8.44,3.18-8.4,3.65-3.38,1.26-6.68,2.72-9.9,4.36-.56-.02-1.11-.16-1.61-.43-.09-1.04.45-2.03,1.38-2.51.86-.09,1.72.05,2.51.4,1.56-.69,3.19-1.22,4.87-1.57v-.59l-1.85.15c1.69-1.04,3.5-1.88,5.38-2.51l.94-.08v.3c-1.57.12-2.47.64-2.67,1.45,0,.28.22.52.5.52.05,0,.09,0,.14-.02.63-.36,1.21-.81,1.72-1.33l.04-.02ZM26.84,71.11v.28c.07.3-.12.59-.41.66-.04.01-.09.01-.14.01v-.28c-.05-.32.17-.62.49-.67,0,0,0,0,0,0h.06ZM41.53,75.12c-1.49.38-2.91,1-4.2,1.85h-.32v-.59c1.46-.1,2.83-.73,3.86-1.77.32-.05.62.18.67.5,0,.02,0,.03,0,.05v-.03ZM26.26,79.39l.94-.08v.32c-.32.06-.63.18-.9.35h-.59c.03-.3.25-.54.55-.6Z"/>
</svg>