<?xml version="1.0" encoding="UTF-8"?>
<svg id="Layer_1" data-name="Layer 1" xmlns="http://www.w3.org/2000/svg" xmlns:xlink="http://www.w3.org/1999/xlink" viewBox="0 0 100 100">
  <defs>
    <style>
      .cls-1 {
        fill: url(#linear-gradient);
      }

      .cls-1, .cls-2, .cls-3, .cls-4 {
        stroke-width: 0px;
      }

      .cls-2 {
        fill: #ed1c24;
      }

      .cls-3 {
        fill: #fff;
      }

      .cls-4 {
        fill: url(#linear-gradient-2);
      }
    </style>
    <linearGradient id="linear-gradient" x1="-58.63" y1="340.8" x2="-58.51" y2="340.8" gradientTransform="translate(36857.24 251429.33) scale(628.45 -737.62)" gradientUnits="userSpaceOnUse">
      <stop offset=".4" stop-color="#f50"/>
      <stop offset=".6" stop-color="#ff2000"/>
    </linearGradient>
    <linearGradient id="linear-gradient-2" x1="-58.64" y1="340.16" x2="-58.52" y2="340.16" gradientTransform="translate(30623.02 45204.34) scale(521.88 -132.85)" gradientUnits="userSpaceOnUse">
      <stop offset="0" stop-color="#ff452a"/>
      <stop offset="1" stop-color="#ff2000"/>
    </linearGradient>
  </defs>
  <g>
    <rect class="cls-3" x="2" y="2" width="96" height="96" rx="18" ry="18"/>
    <path class="cls-2" d="M80,4c8.82,0,16,7.18,16,16v60c0,8.82-7.18,16-16,16H20c-8.82,0-16-7.18-16-16V20c0-8.82,7.18-16,16-16h60M80,0H20C9,0,0,9,0,20v60c0,11,9,20,20,20h60c11,0,20-9,20-20V20c0-11-9-20-20-20h0Z"/>
  </g>
  <g>
    <path class="cls-1" d="M85.63,26.6l2.11-5.18-5.99-6.2c-3.24-3.24-10.15-1.34-10.15-1.34l-7.82-8.88h-27.59l-7.86,8.92s-6.91-1.87-10.15,1.3l-5.99,6.17,2.11,5.18-2.64,7.68,8.81,33.58c1.83,7.19,3.07,9.97,8.25,13.64l16.1,10.92c1.55.95,3.45,2.61,5.18,2.61s3.63-1.66,5.18-2.61l16.1-10.92c5.18-3.66,6.41-6.45,8.25-13.64l8.81-33.58-2.71-7.65Z"/>
    <path class="cls-3" d="M69.42,19.59s10.11,12.23,10.11,14.8-1.27,3.31-2.54,4.69l-7.58,8.1c-.7.7-2.22,1.9-1.34,3.98.88,2.11,2.11,4.72.7,7.4-1.41,2.71-3.88,4.51-5.46,4.23-2.36-.77-4.61-1.83-6.7-3.17-1.34-.88-5.64-4.44-5.64-5.81s4.44-3.88,5.29-4.37c.81-.56,4.58-2.75,4.65-3.59s.07-1.06-1.06-3.17-3.1-4.93-2.82-6.77c.35-1.83,3.52-2.82,5.88-3.7l7.29-2.75c.56-.28.42-.53-1.27-.7-1.69-.14-6.45-.78-8.6-.18s-5.74,1.52-6.1,2.01c-.28.49-.56.49-.25,2.18l2.04,11.1c.14,1.41.42,2.36-1.06,2.71-1.55.35-4.12.95-5,.95s-3.49-.6-5-.95-1.23-1.3-1.06-2.71c.14-1.41,1.69-9.44,2.01-11.1.35-1.69.04-1.69-.25-2.18-.35-.49-3.98-1.41-6.13-2.01-2.11-.6-6.91.04-8.6.21-1.69.14-1.83.35-1.27.7l7.29,2.71c2.33.88,5.57,1.87,5.88,3.7.35,1.87-1.66,4.65-2.82,6.77s-1.13,2.33-1.06,3.17,3.88,3.03,4.65,3.59c.85.53,5.29,3,5.29,4.37s-4.19,4.93-5.6,5.81c-2.09,1.34-4.34,2.41-6.7,3.17-1.59.28-4.05-1.52-5.5-4.23-1.41-2.68-.14-5.29.7-7.4.88-2.11-.6-3.24-1.34-3.98l-7.58-8.1c-1.23-1.3-2.5-2.01-2.5-4.62s10.11-14.8,10.11-14.8l9.62,1.55c1.13,0,3.63-.95,5.92-1.76,2.29-.7,3.88-.78,3.88-.78,0,0,1.55,0,3.88.78s4.79,1.76,5.92,1.76,9.69-1.66,9.69-1.66l-.04.04ZM61.84,66.39c.63.35.25,1.13-.35,1.55l-8.95,6.98c-.7.7-1.83,1.76-2.57,1.76s-1.83-1.06-2.57-1.76c-2.97-2.36-5.96-4.69-8.99-6.98-.56-.42-.95-1.16-.35-1.55l5.29-2.82c2.1-1.11,4.32-1.97,6.62-2.57.53,0,3.88,1.2,6.59,2.57l5.29,2.82Z"/>
    <path class="cls-4" d="M71.67,13.92l-7.89-8.92h-27.59l-7.86,8.92s-6.91-1.87-10.15,1.3c0,0,9.16-.81,12.33,4.33l9.73,1.66c1.13,0,3.63-.95,5.92-1.76,2.29-.7,3.88-.78,3.88-.78,0,0,1.55,0,3.88.78s4.79,1.76,5.92,1.76,9.69-1.66,9.69-1.66c3.17-5.14,12.33-4.33,12.33-4.33-3.24-3.24-10.15-1.34-10.15-1.34"/>
  </g>
</svg>