<?xml version="1.0" encoding="UTF-8"?>
<svg id="Layer_1" data-name="Layer 1" xmlns="http://www.w3.org/2000/svg" viewBox="0 0 100 100">
  <defs>
    <style>
      .cls-1 {
        fill: #020202;
      }

      .cls-1, .cls-2, .cls-3, .cls-4, .cls-5, .cls-6, .cls-7, .cls-8, .cls-9 {
        stroke-width: 0px;
      }

      .cls-2 {
        fill: #faf1f1;
      }

      .cls-4 {
        fill: #fff;
      }

      .cls-5 {
        fill: #fdf2f2;
      }

      .cls-6 {
        fill: #fef3f3;
      }

      .cls-7 {
        fill: #fdfdfd;
      }

      .cls-8 {
        fill: #e3e3f8;
      }

      .cls-9 {
        fill: #efefef;
      }
    </style>
  </defs>
  <g>
    <rect class="cls-4" x=".5" y=".5" width="99" height="99" rx="19.5" ry="19.5"/>
    <path class="cls-3" d="M80,1c10.48,0,19,8.52,19,19v60c0,10.48-8.52,19-19,19H20c-10.48,0-19-8.52-19-19V20C1,9.52,9.52,1,20,1h60M80,0H20C9,0,0,9,0,20v60c0,11,9,20,20,20h60c11,0,20-9,20-20V20c0-11-9-20-20-20h0Z"/>
  </g>
  <g>
    <path class="cls-8" d="M26.57,57.56c1.9-.84,3.47-2.95,2.52-4.43-2.6.76-2.48,2.5-2.52,4.43Z"/>
    <path class="cls-8" d="M46.54,62.38c1.78-.45,3.49-2.02,2.53-3.65-1.39.76-2.28,1.8-2.53,3.65Z"/>
    <path class="cls-7" d="M7.29,85.61c0,1.77.45,3.68,1.68,4.35,4.54,2.55,20.48.56,25.89-.65,2.83-.65,5.13-2.75,7.8-3.9,6-2.61,10.35-4.71,15.15-8.22,3.48-2.55,9.01-9.74,9.59-14.03l-4.74-1.07c-.11,4.83-1.21,5.92-5.5,7.04-2.89.79-8.53.95-11.47.45-3.9-.65-5.67-2.69-7.43-5.02-3.42-4.54.76-7.72-4.66-8.02-5.7,6.99-15.74,1.96-20.14,1.26-1.88,2.72-6.28,20.4-6.23,24.44,2.72-.93,4.43.08,6.87,1.04,8.64,3.34,1.09,6.28-2.36,5.41-2.36-.56-3.09-2.1-4.46-3.09Z"/>
    <path class="cls-7" d="M18.6,45.3c3.51.67,6.62,2.13,9.59,3.62,4.85,2.41,5.72,2.08,6.17,5.44.06.62-.06.95,1.71,1.51,2.97.93-1.71-.73,6.26-.7,4.74.03,15.6,1.94,19.11,4.15,1.46.93,1.18,2.1,6.12,1.96-.06-5.81-1.6-14.48-3.87-19.81-2.78-6.45-6.45-7.43-13.94-9.85-4.38-1.4-17.23-2.95-21.21-.48-3.73,2.33-4.43,5.11-7.91,9.99-1.01,1.43-1.37,2.52-2.02,4.15Z"/>
    <path class="cls-7" d="M49.49,57.22c2.81,1.15-.14,8.58-4.04,6.79-1.26-3.56,1.74-5.58,2.55-7.18-1.68-.25-6.48-1.01-7.91-.48-1.85.7-2.27,4.66-1.32,6.51,4.49,8.81,24.32,6.93,22.22.08-.84-2.78-1.63-3.23-4.46-4.18-2.27-.76-4.54-1.54-7.04-1.54Z"/>
    <path class="cls-7" d="M14.22,56.24c2.24,2.16,7.32,2.5,10.6,2.67.42-4.35.79-7.6,4.26-7.35,1.71,2.33.81,5.08-.98,6.85,3.06-.03,4.83-2.33,4.38-5.67-2.58-1.85-10.41-5.55-14.34-6.09-1.09,1.18-3.79,7.63-3.93,9.59Z"/>
    <path class="cls-1" d="M8.95,84.01c1.85-.17,6.68,1.23,7.07,2.81-3,.36-6.82.08-7.07-2.81ZM7.29,85.61c1.37.98,2.1,2.52,4.46,3.09,3.45.87,11-2.08,2.36-5.41-2.44-.95-4.15-1.96-6.87-1.04-.06-4.04,4.35-21.71,6.23-24.44,4.4.7,14.45,5.72,20.14-1.26,5.41.31,1.23,3.48,4.66,8.02,1.77,2.33,3.53,4.38,7.43,5.02,2.95.5,8.58.34,11.47-.45,4.29-1.12,5.39-2.22,5.5-7.04l4.74,1.07c-.59,4.29-6.12,11.47-9.59,14.03-4.8,3.51-9.15,5.61-15.15,8.22-2.67,1.15-4.97,3.25-7.8,3.9-5.41,1.21-21.35,3.2-25.89.65-1.23-.67-1.68-2.58-1.68-4.35ZM46.54,62.38c.25-1.85,1.14-2.89,2.53-3.65.96,1.63-.75,3.2-2.53,3.65ZM49.49,57.22c2.5,0,4.77.79,7.04,1.54,2.83.95,3.62,1.4,4.46,4.18,2.1,6.85-17.73,8.73-22.22-.08-.95-1.85-.53-5.81,1.32-6.51,1.43-.53,6.23.22,7.91.48-.81,1.6-3.82,3.62-2.55,7.18,3.9,1.8,6.85-5.64,4.04-6.79ZM26.57,57.56c.04-1.94-.08-3.68,2.52-4.43.95,1.49-.62,3.59-2.52,4.43ZM14.22,56.24c.14-1.96,2.83-8.42,3.93-9.59,3.93.53,11.75,4.24,14.34,6.09.45,3.34-1.32,5.64-4.38,5.67,1.8-1.77,2.69-4.52.98-6.85-3.48-.25-3.84,3-4.26,7.35-3.28-.17-8.36-.5-10.6-2.67ZM11.42,53.99c-1.04-2.86-1.04-7.32,3.37-7.69l-2.24,6.26c-.59,1.35-.59,1.04-1.12,1.43ZM18.6,45.3c.65-1.63,1.01-2.72,2.02-4.15,3.48-4.88,4.18-7.66,7.91-9.99,3.98-2.47,16.83-.93,21.21.48,7.49,2.41,11.17,3.39,13.94,9.85,2.27,5.33,3.82,14,3.87,19.81-4.94.14-4.66-1.04-6.12-1.96-3.51-2.22-14.36-4.12-19.11-4.15-7.97-.03-3.28,1.63-6.26.7-1.77-.56-1.66-.9-1.71-1.51-.45-3.37-1.32-3.03-6.17-5.44-2.97-1.49-6.09-2.95-9.59-3.62ZM68.26,43.92c-.53-1.77.45-1.66,2.16-2.86.98-.7,1.77-1.43,2.97-2.1,4.52-2.52,12.93-2.95,16.52.06,1.46,1.21,3.84,3.56,3.48,6.65-.76,6.14-4.97,9.51-8.42,12.32-3.51,2.86-9.34,5.81-15.37,3.84-.5-1.23-.11-9.06-.7-11.95-.53-2.58-.25-2.86,1.23-4.4,4.38-4.54,13.86-7.86,19.25-3.96,2.27,1.68,1.63,2.33,2.81,3.62,1.46-1.57-1.26-6.85-11.31-6.51-6.82.22-9.76,5.55-12.62,5.3ZM27.41,27.96c.14-3.9,3.73-11.98,7.32-14.78,4.35-3.37,8.89-6.54,15.57-2.75,1.66.93,1.57,1.4,1.74,3.7.14,2.22-.06,3.03-.62,4.83-4.43,14.31-8.14,6.09-22.33,9.48.53-4.66,4.57-8.81,6.82-10.97,3.84-3.73,6.62-6.14,12.4-5.36,1.6,2.67,1.77,4.35-.17,7.46-2.58,4.15-3.23,3.9-2.83,6.73,2.02-.5,2.64-2.47,3.56-4.43,5.64-11.78-2.55-13.21-7.57-11.05-3.37,1.43-9.37,8.05-11.33,12.04-.39.79-.81,1.8-1.18,2.67l-1.37,2.44ZM49.63,28.55c.59-3.51,4.07-4.38,4.07-15.18,0-4.66-5.72-8.84-13.21-5.72-6.42,2.64-7.41,4.66-10.83,9.82-3.23,4.88-3.11,10.24-5.89,14.76-.81,1.29-1.54,1.74-2.44,3.03-.65.95-1.12,2.16-1.77,3.28-1.32,2.16-2.67,3.73-3.73,6.31-3.37.08-6.2.14-6.54,3.62-.45,4.77,1.8,5.95,1.8,7.74-.03,1.94-7.88,21.46-5.7,33.1.62,3.2,2.72,3.23,6.09,3.62,8.11.98,18.63.65,25.89-2.27l13.19-6.31c3.34-1.88,8.95-5.44,11.45-8.05,1.77-1.82,2.69-3.37,4.21-5.53,2.08-3.03,2.13-2.97,2.58-7.1,2.75.5,7.88,1.71,9.59,3.2-.2,1.94-1.15,1.01-1.15,2.75,1.09.03,2.92-1.35,3.37-2.86-1.15-1.68-2.36-1.4-4.01-2.75,1.32-1.04,3.7-1.51,5.53-2.27,3.93-1.63,10.63-6.56,12.29-11.05,1.32-3.62.34-9.65-1.8-12.01-2.24-2.47-7.46-3.73-11.73-3.73-5.08,0-10.32,3.65-14.42,5.22-1.57-1.37-1.68-2.95-2.83-4.46-1.32-1.8-9.9-6.28-14-7.15Z"/>
    <path class="cls-5" d="M68.26,43.92c2.86.25,5.81-5.08,12.62-5.3,10.04-.34,12.76,4.94,11.31,6.51-1.18-1.29-.53-1.94-2.81-3.62-5.39-3.9-14.87-.59-19.25,3.96-1.49,1.54-1.77,1.82-1.23,4.4.59,2.89.2,10.72.7,11.95,6.03,1.96,11.87-.98,15.37-3.84,3.45-2.81,7.66-6.17,8.42-12.32.36-3.09-2.02-5.44-3.48-6.65-3.59-3-12.01-2.58-16.52-.06-1.21.67-1.99,1.4-2.97,2.1-1.71,1.21-2.69,1.09-2.16,2.86Z"/>
    <path class="cls-6" d="M27.41,27.96l1.37-2.44c.36-.87.79-1.88,1.18-2.67,1.96-3.98,7.97-10.6,11.33-12.04,5.02-2.16,13.21-.73,7.57,11.05-.93,1.96-1.54,3.93-3.56,4.43-.39-2.83.25-2.58,2.83-6.73,1.94-3.11,1.77-4.8.17-7.46-5.78-.79-8.56,1.63-12.4,5.36-2.24,2.16-6.28,6.31-6.82,10.97,14.2-3.39,17.9,4.83,22.33-9.48.56-1.8.76-2.61.62-4.83-.17-2.3-.08-2.78-1.74-3.7-6.68-3.79-11.22-.62-15.57,2.75-3.59,2.81-7.18,10.89-7.32,14.78Z"/>
    <path class="cls-9" d="M11.42,53.99c.53-.39.53-.08,1.12-1.43l2.24-6.26c-4.4.36-4.4,4.83-3.37,7.69Z"/>
    <path class="cls-2" d="M16.02,86.82c-.39-1.57-5.22-2.97-7.07-2.81.25,2.89,4.07,3.17,7.07,2.81Z"/>
  </g>
</svg>