<?xml version="1.0" encoding="UTF-8"?>
<svg id="Layer_1" data-name="Layer 1" xmlns="http://www.w3.org/2000/svg" viewBox="0 0 100 100">
  <defs>
    <style>
      .cls-1 {
        fill: #020202;
      }

      .cls-1, .cls-2, .cls-3, .cls-4, .cls-5, .cls-6, .cls-7, .cls-8, .cls-9 {
        stroke-width: 0px;
      }

      .cls-2 {
        fill: #faf1f1;
      }

      .cls-4 {
        fill: #fff;
      }

      .cls-5 {
        fill: #fdf2f2;
      }

      .cls-6 {
        fill: #fef3f3;
      }

      .cls-7 {
        fill: #fdfdfd;
      }

      .cls-8 {
        fill: #e3e3f8;
      }

      .cls-9 {
        fill: #efefef;
      }
    </style>
  </defs>
  <g>
    <rect class="cls-4" x=".5" y=".5" width="99" height="99" rx="29.5" ry="29.5"/>
    <path class="cls-3" d="M70,1c15.99,0,29,13.01,29,29v40c0,15.99-13.01,29-29,29H30c-15.99,0-29-13.01-29-29V30C1,14.01,14.01,1,30,1h40M70,0H30C13.5,0,0,13.5,0,30v40c0,16.5,13.5,30,30,30h40c16.5,0,30-13.5,30-30V30c0-16.5-13.5-30-30-30h0Z"/>
  </g>
  <g>
    <path class="cls-8" d="M28.13,57.05c1.77-.79,3.24-2.75,2.35-4.14-2.43.71-2.31,2.33-2.35,4.14Z"/>
    <path class="cls-8" d="M46.77,61.56c1.66-.42,3.26-1.89,2.36-3.4-1.3.71-2.13,1.68-2.36,3.4Z"/>
    <path class="cls-7" d="M10.14,83.24c0,1.65.42,3.43,1.57,4.06,4.24,2.38,19.11.52,24.17-.6,2.64-.6,4.79-2.57,7.28-3.64,5.6-2.44,9.66-4.4,14.14-7.67,3.25-2.38,8.41-9.09,8.96-13.09l-4.43-1c-.1,4.5-1.13,5.52-5.13,6.57-2.7.73-7.96.89-10.71.42-3.64-.6-5.29-2.51-6.94-4.69-3.19-4.24.71-7.2-4.35-7.49-5.32,6.52-14.69,1.83-18.8,1.18-1.75,2.54-5.87,19.04-5.81,22.81,2.54-.86,4.14.08,6.42.97,8.06,3.12,1.02,5.87-2.2,5.05-2.2-.52-2.88-1.96-4.16-2.88Z"/>
    <path class="cls-7" d="M20.69,45.61c3.27.63,6.18,1.99,8.96,3.38,4.53,2.25,5.34,1.94,5.76,5.08.05.58-.05.89,1.6,1.41,2.78.86-1.6-.68,5.84-.65,4.43.03,14.56,1.81,17.83,3.88,1.36.86,1.1,1.96,5.71,1.83-.05-5.42-1.49-13.51-3.61-18.49-2.59-6.02-6.02-6.94-13.01-9.19-4.08-1.31-16.08-2.75-19.8-.45-3.48,2.17-4.14,4.77-7.38,9.32-.94,1.34-1.28,2.36-1.89,3.88Z"/>
    <path class="cls-7" d="M49.52,56.74c2.62,1.07-.13,8.01-3.77,6.34-1.18-3.33,1.62-5.21,2.38-6.7-1.57-.24-6.05-.94-7.38-.45-1.73.65-2.12,4.35-1.23,6.07,4.19,8.22,22.7,6.47,20.74.08-.79-2.59-1.52-3.01-4.16-3.9-2.12-.71-4.24-1.44-6.57-1.44Z"/>
    <path class="cls-7" d="M16.61,55.82c2.09,2.02,6.83,2.33,9.9,2.49.39-4.06.73-7.1,3.98-6.86,1.6,2.17.76,4.74-.92,6.39,2.85-.03,4.5-2.17,4.08-5.29-2.41-1.73-9.71-5.18-13.38-5.68-1.02,1.1-3.53,7.12-3.67,8.96Z"/>
    <path class="cls-1" d="M11.68,81.74c1.73-.16,6.23,1.15,6.6,2.62-2.8.34-6.36.08-6.6-2.62ZM10.14,83.24c1.28.92,1.96,2.36,4.16,2.88,3.22.81,10.26-1.94,2.2-5.05-2.28-.89-3.88-1.83-6.42-.97-.05-3.77,4.06-20.27,5.81-22.81,4.11.65,13.48,5.34,18.8-1.18,5.05.29,1.15,3.25,4.35,7.49,1.65,2.17,3.3,4.08,6.94,4.69,2.75.47,8.01.31,10.71-.42,4.01-1.05,5.03-2.07,5.13-6.57l4.43,1c-.55,4.01-5.71,10.71-8.96,13.09-4.48,3.27-8.54,5.24-14.14,7.67-2.49,1.07-4.63,3.04-7.28,3.64-5.05,1.13-19.93,2.99-24.17.6-1.15-.63-1.57-2.41-1.57-4.06ZM46.77,61.56c.23-1.73,1.06-2.7,2.36-3.4.9,1.52-.7,2.99-2.36,3.4ZM49.52,56.74c2.33,0,4.45.73,6.57,1.44,2.64.89,3.38,1.31,4.16,3.9,1.96,6.39-16.55,8.14-20.74-.08-.89-1.73-.5-5.42,1.23-6.07,1.34-.5,5.81.21,7.38.45-.76,1.49-3.56,3.38-2.38,6.7,3.64,1.68,6.39-5.26,3.77-6.34ZM28.13,57.05c.04-1.81-.08-3.43,2.35-4.14.89,1.39-.58,3.35-2.35,4.14ZM16.61,55.82c.13-1.83,2.64-7.86,3.67-8.96,3.67.5,10.97,3.95,13.38,5.68.42,3.12-1.23,5.26-4.08,5.29,1.68-1.65,2.51-4.22.92-6.39-3.25-.24-3.59,2.8-3.98,6.86-3.06-.16-7.8-.47-9.9-2.49ZM13.99,53.73c-.97-2.67-.97-6.83,3.14-7.17l-2.09,5.84c-.55,1.26-.55.97-1.05,1.34ZM20.69,45.61c.6-1.52.94-2.54,1.89-3.88,3.25-4.56,3.9-7.15,7.38-9.32,3.72-2.3,15.71-.86,19.8.45,6.99,2.25,10.42,3.17,13.01,9.19,2.12,4.98,3.56,13.07,3.61,18.49-4.61.13-4.35-.97-5.71-1.83-3.27-2.07-13.41-3.85-17.83-3.88-7.44-.03-3.06,1.52-5.84.65-1.65-.52-1.54-.84-1.6-1.41-.42-3.14-1.23-2.83-5.76-5.08-2.78-1.39-5.68-2.75-8.96-3.38ZM67.04,44.33c-.5-1.65.42-1.54,2.02-2.67.92-.65,1.65-1.34,2.78-1.96,4.22-2.36,12.07-2.75,15.42.05,1.36,1.13,3.59,3.33,3.25,6.21-.71,5.73-4.63,8.88-7.86,11.49-3.27,2.67-8.72,5.42-14.35,3.59-.47-1.15-.1-8.46-.65-11.15-.5-2.41-.24-2.67,1.15-4.11,4.08-4.24,12.94-7.33,17.96-3.69,2.12,1.57,1.52,2.17,2.62,3.38,1.36-1.47-1.18-6.39-10.55-6.07-6.36.21-9.11,5.18-11.78,4.95ZM28.91,29.43c.13-3.64,3.48-11.18,6.83-13.8,4.06-3.14,8.3-6.1,14.53-2.57,1.54.86,1.47,1.31,1.62,3.46.13,2.07-.05,2.83-.58,4.5-4.14,13.35-7.59,5.68-20.84,8.85.5-4.35,4.27-8.22,6.36-10.24,3.59-3.48,6.18-5.73,11.57-5,1.49,2.49,1.65,4.06-.16,6.97-2.41,3.88-3.01,3.64-2.64,6.28,1.89-.47,2.46-2.3,3.33-4.14,5.26-11-2.38-12.33-7.07-10.32-3.14,1.34-8.75,7.51-10.58,11.23-.37.73-.76,1.68-1.1,2.49l-1.28,2.28ZM49.65,29.98c.55-3.27,3.8-4.08,3.8-14.17,0-4.35-5.34-8.25-12.33-5.34-6,2.46-6.91,4.35-10.11,9.16-3.01,4.56-2.91,9.56-5.5,13.77-.76,1.2-1.44,1.62-2.28,2.83-.6.89-1.05,2.02-1.65,3.06-1.23,2.02-2.49,3.48-3.48,5.89-3.14.08-5.79.13-6.1,3.38-.42,4.45,1.68,5.55,1.68,7.23-.03,1.81-7.36,20.03-5.32,30.9.58,2.99,2.54,3.01,5.68,3.38,7.57.92,17.39.6,24.17-2.12l12.31-5.89c3.12-1.75,8.35-5.08,10.68-7.51,1.65-1.7,2.51-3.14,3.93-5.16,1.94-2.83,1.99-2.78,2.41-6.62,2.57.47,7.36,1.6,8.96,2.99-.18,1.81-1.07.94-1.07,2.57,1.02.03,2.72-1.26,3.14-2.67-1.07-1.57-2.2-1.31-3.74-2.57,1.23-.97,3.46-1.41,5.16-2.12,3.67-1.52,9.92-6.13,11.47-10.32,1.23-3.38.31-9.01-1.68-11.21-2.09-2.3-6.97-3.48-10.95-3.48-4.74,0-9.64,3.4-13.46,4.87-1.47-1.28-1.57-2.75-2.64-4.16-1.23-1.68-9.24-5.87-13.07-6.68Z"/>
    <path class="cls-5" d="M67.04,44.33c2.67.24,5.42-4.74,11.78-4.95,9.37-.31,11.91,4.61,10.55,6.07-1.1-1.2-.5-1.81-2.62-3.38-5.03-3.64-13.88-.55-17.96,3.69-1.39,1.44-1.65,1.7-1.15,4.11.55,2.7.18,10,.65,11.15,5.63,1.83,11.08-.92,14.35-3.59,3.22-2.62,7.15-5.76,7.86-11.49.34-2.88-1.89-5.08-3.25-6.21-3.35-2.8-11.21-2.41-15.42-.05-1.13.63-1.86,1.31-2.78,1.96-1.6,1.13-2.51,1.02-2.02,2.67Z"/>
    <path class="cls-6" d="M28.91,29.43l1.28-2.28c.34-.81.73-1.75,1.1-2.49,1.83-3.72,7.44-9.9,10.58-11.23,4.69-2.02,12.33-.68,7.07,10.32-.86,1.83-1.44,3.67-3.33,4.14-.37-2.64.24-2.41,2.64-6.28,1.81-2.91,1.65-4.48.16-6.97-5.39-.73-7.99,1.52-11.57,5-2.09,2.02-5.87,5.89-6.36,10.24,13.25-3.17,16.71,4.5,20.84-8.85.52-1.68.71-2.44.58-4.5-.16-2.15-.08-2.59-1.62-3.46-6.23-3.53-10.47-.58-14.53,2.57-3.35,2.62-6.7,10.16-6.83,13.8Z"/>
    <path class="cls-9" d="M13.99,53.73c.5-.37.5-.08,1.05-1.34l2.09-5.84c-4.11.34-4.11,4.5-3.14,7.17Z"/>
    <path class="cls-2" d="M18.28,84.36c-.37-1.47-4.87-2.78-6.6-2.62.24,2.7,3.8,2.96,6.6,2.62Z"/>
  </g>
</svg>