<?xml version="1.0" encoding="UTF-8"?>
<svg id="Layer_1" data-name="Layer 1" xmlns="http://www.w3.org/2000/svg" viewBox="0 0 100 100">
  <defs>
    <style>
      .cls-1 {
        fill: #4b32c3;
      }

      .cls-1, .cls-2, .cls-3, .cls-4 {
        stroke-width: 0px;
      }

      .cls-2 {
        fill: #fff;
      }

      .cls-3 {
        fill: #8080f2;
      }

      .cls-4 {
        fill: #2e3192;
      }
    </style>
  </defs>
  <g>
    <rect class="cls-2" x=".5" y=".5" width="99" height="99" rx="29.5" ry="29.5"/>
    <path class="cls-4" d="M70,1c15.99,0,29,13.01,29,29v40c0,15.99-13.01,29-29,29H30c-15.99,0-29-13.01-29-29V30C1,14.01,14.01,1,30,1h40M70,0H30C13.5,0,0,13.5,0,30v40c0,16.5,13.5,30,30,30h40c16.5,0,30-13.5,30-30V30c0-16.5-13.5-30-30-30h0Z"/>
  </g>
  <g>
    <path class="cls-1" d="M94.46,52.25l-20.42,34.45c-.77,1.22-2.15,1.94-3.59,1.87H29.58c-1.45.06-2.82-.67-3.59-1.9L5.56,52.28c-.74-1.26-.74-2.83,0-4.09L25.98,13.6c.74-1.3,2.1-2.12,3.6-2.17h40.85c1.49.06,2.85.88,3.59,2.18l20.42,34.67c.74,1.22.74,2.76,0,3.98h.01ZM77.55,65.75v-30.9l-27.55-15.49-27.51,15.49v30.9l27.51,15.49,27.55-15.49Z"/>
    <polygon class="cls-3" points="68.65 60.25 50.18 70.64 31.72 60.25 31.72 39.45 50.18 29.05 68.65 39.45 68.65 60.25"/>
  </g>
</svg>