<?xml version="1.0" encoding="UTF-8"?>
<svg id="Layer_1" data-name="Layer 1" xmlns="http://www.w3.org/2000/svg" viewBox="0 0 100 100">
  <defs>
    <style>
      .cls-1 {
        fill: #fff;
      }

      .cls-1, .cls-2, .cls-3 {
        stroke-width: 0px;
      }

      .cls-2 {
        fill: #f15a24;
      }

      .cls-3 {
        fill: #ee513b;
      }
    </style>
  </defs>
  <g>
    <rect class="cls-1" x="2" y="2" width="96" height="96" rx="18" ry="18"/>
    <path class="cls-2" d="M80,4c8.82,0,16,7.18,16,16v60c0,8.82-7.18,16-16,16H20c-8.82,0-16-7.18-16-16V20c0-8.82,7.18-16,16-16h60M80,0H20C9,0,0,9,0,20v60c0,11,9,20,20,20h60c11,0,20-9,20-20V20c0-11-9-20-20-20h0Z"/>
  </g>
  <g>
    <path class="cls-3" d="M6.88,54.54c-2.51-2.51-2.51-6.58,0-9.08L45.46,6.88c2.51-2.51,6.58-2.51,9.08,0l38.58,38.58c2.51,2.51,2.51,6.58,0,9.08l-38.58,38.58c-2.51,2.51-6.58,2.51-9.08,0L6.88,54.54Z"/>
    <path class="cls-1" d="M37.62,14.84l-3.91,3.91,10.09,10.09c-.41.88-.64,1.85-.64,2.88,0,2.92,1.84,5.42,4.42,6.39v24.68c-2.58.97-4.42,3.47-4.42,6.39,0,3.77,3.06,6.83,6.83,6.83s6.83-3.06,6.83-6.83c0-2.65-1.51-4.95-3.72-6.08v-24.96l9.64,9.64c-.39.86-.6,1.81-.6,2.81,0,3.77,3.06,6.83,6.83,6.83s6.83-3.06,6.83-6.83-3.06-6.83-6.83-6.83c-.73,0-1.44.12-2.1.33l-10.36-10.36c.2-.64.31-1.32.31-2.02,0-3.77-3.06-6.83-6.83-6.83-.7,0-1.38.11-2.02.31l-10.35-10.35Z"/>
  </g>
</svg>