<?xml version="1.0" encoding="UTF-8"?>
<svg id="Layer_1" data-name="Layer 1" xmlns="http://www.w3.org/2000/svg" viewBox="0 0 100 100">
  <defs>
    <style>
      .cls-1 {
        fill: #fff;
      }

      .cls-1, .cls-2 {
        stroke-width: 0px;
      }

      .cls-2 {
        fill: #d34a47;
      }
    </style>
  </defs>
  <g>
    <rect class="cls-1" x="2" y="2" width="96" height="96" rx="18" ry="18"/>
    <path class="cls-2" d="M80,4c8.82,0,16,7.18,16,16v60c0,8.82-7.18,16-16,16H20c-8.82,0-16-7.18-16-16V20c0-8.82,7.18-16,16-16h60M80,0H20C9,0,0,9,0,20v60c0,11,9,20,20,20h60c11,0,20-9,20-20V20c0-11-9-20-20-20h0Z"/>
  </g>
  <g>
    <path class="cls-2" d="M61,92.29l.86-14.39,2.38-4.07s-5.43,2.22-14.51,2.22-14.43-2.18-14.43-2.18l2.67,4.44.95,13.98c0,1.5,4.94,2.71,11.04,2.71s11.04-1.21,11.04-2.71"/>
    <path class="cls-2" d="M58.28,25.1l1.81-7.16,10.04-10.56-2.65-2.25-10.63,11.25-2.1,8.56c-1.52-.05-3.12-.08-4.75-.08-11.19,0-20.26,1.28-20.26,2.85s9.07,2.85,20.26,2.85,20.26-1.28,20.26-2.85c0-1.16-4.92-2.16-11.98-2.6"/>
    <path class="cls-1" d="M57.23,29.11s-.39.09-1.55.09c-1.15,0-1.98,0-2.3-.31-.09-.08-.14-.24-.14-.35,0-.2.15-.32.33-.4l.17.27c-.08.03-.12.06-.12.09,0,.16,1.18.26,2.08.25.9-.01,2-.09,2-.24,0-.05-.08-.09-.23-.12l.17-.27c.23.07.44.21.44.46,0,.41-.53.48-.87.52"/>
    <path class="cls-2" d="M70.11,7.39c.25-.29-.13-1.04-.86-1.67-.73-.63-1.52-.9-1.77-.61-.25.29.13,1.04.86,1.66.72.63,1.52.9,1.77.61"/>
    <path class="cls-2" d="M60.52,57.14c-.24-2.29,5.01-5.6,3.66-5.71-2.9.17-4.34,3.4-5.8,6.78-.53,1.24-2.36,6.53-3.56,5.87-1.2-.65,1.55-5,2.33-7.58-.89.65-4.15,3.19-5,.81-1.35,1.15-4.24,1.77-3.92-1.25-.72,1.27-2.33,3.05-4.27,2.31-2.55-.97,1.47-9.08,2.47-8.67,1,.41-.2,2.26-.52,2.97-.69,1.58-1.49,3.56-.96,3.97.92.7,3.41-2.63,3.46-2.71.47-.62,1.79-4.64,2.86-4.18,1.07.46-2.67,5.78-1.27,6.83.28.21,1.43-.13,2.14-.89.45-.49.3-1.58,1.81-5.19,1.51-3.61,2.86-8.1,3.9-7.76,1.04.34.18,2.65-.19,3.51-1.75,4.03-4.77,10.7-3.34,10.19,1.42-.5,2.17-.53,3.56-2.17,1.39-1.63,1.33-4.32,2.26-4.26.93.06.77.92.55,1.58.91-1.05,4.34-3.25,5.16-1.07.98,2.59-4.9,6.32-3.43,6.13,1.43-.19,3.74-1.65,4.73-2.98l2.72-24.44s-2.74,2.26-20.14,2.26-19.86-2.22-19.86-2.22l2.31,22.31c1.23-3.49,4.15-10.56,8.75-10.32,2.09.11,4.88,4.14,2.49,4.27-1.01.06-1.12-2.01-2.31-2.31-.87-.22-2.07.48-2.85,1.25-1.55,1.52-4.89,7.51-4.45,10.5.56,3.81,5.26-1.32,6.05-2.85.56-1.07.94-4.26,2.16-3.92,1.22.33-.11,3.62-.99,6.52-1,3.26-1.52,6.7-2.77,6.3-1.25-.4.79-4.6.71-5.34-1.17,1.08-3.34,3.83-6.11,2.47l1.44,13.86s3.82,3.02,15.33,3.02,15.47-2.97,15.47-2.97l1.79-16.05c-1.46,1.42-6.08,3.95-6.38,1.1"/>
  </g>
</svg>