<?xml version="1.0" encoding="UTF-8"?>
<svg id="Layer_1" data-name="Layer 1" xmlns="http://www.w3.org/2000/svg" viewBox="0 0 100 100">
  <defs>
    <style>
      .cls-1 {
        fill: #f16529;
      }

      .cls-1, .cls-2, .cls-3, .cls-4 {
        stroke-width: 0px;
      }

      .cls-2 {
        fill: #e44d26;
      }

      .cls-3 {
        fill: #fff;
      }

      .cls-4 {
        fill: #f15a24;
      }
    </style>
  </defs>
  <g>
    <rect class="cls-3" x=".5" y=".5" width="99" height="99" rx="19.5" ry="19.5"/>
    <path class="cls-4" d="M80,1c10.48,0,19,8.52,19,19v60c0,10.48-8.52,19-19,19H20c-10.48,0-19-8.52-19-19V20C1,9.52,9.52,1,20,1h60M80,0H20C9,0,0,9,0,20v60c0,11,9,20,20,20h60c11,0,20-9,20-20V20c0-11-9-20-20-20h0Z"/>
  </g>
  <g>
    <path class="cls-2" d="M17.86,85.36L11.43,5h77.14l-6.43,80.36-32.14,9.64-32.14-9.64Z"/>
    <path class="cls-1" d="M82.14,11.43h-32.14v78.75l25.71-8.04,6.43-70.71Z"/>
    <path class="cls-3" d="M29.11,51.61l-3.21-30.54h49.82l-1.61,9.64h-38.57l1.61,11.25h35.36l-3.21,30.54-19.29,6.43-19.29-6.43-1.61-16.07h9.64l1.61,8.04,9.64,3.21,9.64-3.21,1.61-12.86H29.11Z"/>
  </g>
</svg>