<?xml version="1.0" encoding="UTF-8"?>
<svg id="Layer_1" data-name="Layer 1" xmlns="http://www.w3.org/2000/svg" viewBox="0 0 100 100">
  <defs>
    <style>
      .cls-1 {
        fill: #014d40;
      }

      .cls-1, .cls-2, .cls-3, .cls-4 {
        stroke-width: 0px;
      }

      .cls-2 {
        fill: #009689;
      }

      .cls-3 {
        fill: #00a99d;
      }

      .cls-4 {
        fill: #fff;
      }
    </style>
  </defs>
  <g>
    <rect class="cls-4" x=".5" y=".5" width="99" height="99" rx="19.5" ry="19.5"/>
    <path class="cls-3" d="M80,1c10.48,0,19,8.52,19,19v60c0,10.48-8.52,19-19,19H20c-10.48,0-19-8.52-19-19V20C1,9.52,9.52,1,20,1h60M80,0H20C9,0,0,9,0,20v60c0,11,9,20,20,20h60c11,0,20-9,20-20V20c0-11-9-20-20-20h0Z"/>
  </g>
  <path class="cls-2" d="M61.01,16.66v16.94l19.03,48.89s5.81,11.94-10.81,14.85H31.32s-15.49-1.62-11.78-13.88l20-49.85v-16.94s21.46,0,21.46,0ZM68.85,65.82c-16.61-5.15-30.58-2.39-37.41-.3l-6.88,16.57c-2.94,9.37,8.52,11.03,9.74,11.18h.1s31.67.01,31.67.01c13.28-2.24,9.42-11.15,9.06-11.91l-.03-.05s-6.25-15.5-6.25-15.5Z"/>
  <path class="cls-1" d="M74.93,81.06,34.2,92.97,39.35,68.42c2.96,0,5.36,1.45,5.36,3.24s-2.4,3.24-5.36,3.24-5.35-1.45-5.35-3.24,2.39-3.24,5.35-3.24ZM58.42,68.42c2.95,0,5.35,1.45,5.35,3.24s-2.4,3.24-5.35,3.24-5.36-1.45-5.36-3.24,2.39-3.24,5.36-3.24ZM77.83,33.74s-7.96,5.8-15.32-1.57v-8.06s10.22-2.25,15.32,9.63ZM22.17,33.74c5.1-11.88,15.32-9.63,15.32-9.63v8.06c-7.37,7.37-15.32,1.57-15.32,1.57ZM61.22,7.03c1.86,0,3.36,1.65,3.36,3.68s-1.5,3.68-3.36,3.68h-22.83c-1.85,0-3.35-1.65-3.35-3.68,0-2.03,1.5-3.68,3.35-3.68h22.83Z"/>
  <path class="cls-4" d="M41.54,48.87c-2.07,0-3.75,2.02-3.75,4.52s1.68,4.52,3.75,4.52,3.75-2.02,3.75-4.52-1.68-4.52-3.75-4.52Z"/>
  <path class="cls-4" d="M55.2,44.01c-2.46,0-4.45,2.39-4.45,5.36s1.99,5.35,4.45,5.35,4.45-2.4,4.45-5.35-2-5.36-4.45-5.36Z"/>
</svg>