<?xml version="1.0" encoding="UTF-8"?>
<svg id="Layer_1" data-name="Layer 1" xmlns="http://www.w3.org/2000/svg" viewBox="0 0 100 100">
  <defs>
    <style>
      .cls-1, .cls-2 {
        stroke-width: 0px;
      }

      .cls-2 {
        fill: #f7df1e;
      }
    </style>
  </defs>
  <g>
    <rect class="cls-2" x=".5" y=".5" width="99" height="99" rx="19.5" ry="19.5"/>
    <path class="cls-1" d="M80,1c10.48,0,19,8.52,19,19v60c0,10.48-8.52,19-19,19H20c-10.48,0-19-8.52-19-19V20C1,9.52,9.52,1,20,1h60M80,0H20C9,0,0,9,0,20v60c0,11,9,20,20,20h60c11,0,20-9,20-20V20c0-11-9-20-20-20h0Z"/>
  </g>
  <path class="cls-1" d="M63.28,72.27c1.95,3.32,4.69,5.66,9.18,5.66,3.91,0,6.45-1.95,6.45-4.69,0-3.12-2.54-4.3-6.84-6.25l-2.34-.98c-6.84-2.93-11.33-6.45-11.33-14.06,0-7.03,5.27-12.5,13.67-12.5,6.05,0,10.35,2.15,13.28,7.62l-7.23,4.69c-1.56-2.93-3.32-4.1-6.05-4.1s-4.49,1.76-4.49,4.1c0,2.73,1.76,3.91,5.86,5.66l2.34.98c8.01,3.52,12.5,6.84,12.5,14.84s-6.64,13.09-15.62,13.09-14.45-4.1-17.19-9.57l7.81-4.49ZM30.08,73.05c1.56,2.54,2.73,4.88,6.05,4.88,3.12,0,5.08-1.17,5.08-5.86v-32.42h9.38v32.03c0,9.77-5.66,14.06-14.06,14.06-7.62,0-11.91-3.91-14.06-8.59l7.62-4.1Z"/>
</svg>