<?xml version="1.0" encoding="UTF-8"?>
<svg id="Layer_1" data-name="Layer 1" xmlns="http://www.w3.org/2000/svg" xmlns:xlink="http://www.w3.org/1999/xlink" viewBox="0 0 100 100">
  <defs>
    <style>
      .cls-1 {
        fill: url(#linear-gradient);
      }

      .cls-1, .cls-2, .cls-3, .cls-4 {
        stroke-width: 0px;
      }

      .cls-3 {
        fill: #fff;
      }

      .cls-4 {
        fill: url(#linear-gradient-2);
      }
    </style>
    <linearGradient id="linear-gradient" x1="-178.41" y1="220.66" x2="-178.32" y2="220.58" gradientTransform="translate(133692.07 176440.98) scale(749.27 -799.5)" gradientUnits="userSpaceOnUse">
      <stop offset="0" stop-color="#000"/>
      <stop offset="1" stop-color="#fff"/>
    </linearGradient>
    <linearGradient id="linear-gradient-2" x1="-178.44" y1="220.59" x2="-178.53" y2="220.67" gradientTransform="translate(118048.92 176550.03) scale(661.1 -800)" xlink:href="#linear-gradient"/>
  </defs>
  <g>
    <rect class="cls-3" x="2" y="2" width="96" height="96" rx="18" ry="18"/>
    <path class="cls-2" d="M80,4c8.82,0,16,7.18,16,16v60c0,8.82-7.18,16-16,16H20c-8.82,0-16-7.18-16-16V20c0-8.82,7.18-16,16-16h60M80,0H20C9,0,0,9,0,20v60c0,11,9,20,20,20h60c11,0,20-9,20-20V20c0-11-9-20-20-20h0Z"/>
  </g>
  <g>
    <path class="cls-1" d="M49.92,71.99c19.91,27.14,39.4-7.58,39.37-28.46-.03-24.69-25.05-38.48-39.38-38.48C26.91,5.06,5,24.07,5,50.08c0,28.91,25.11,44.92,44.91,44.92-4.48-.65-19.41-3.84-19.61-38.23-.13-23.26,7.59-32.55,19.58-28.46.27.1,13.23,5.21,13.23,21.91s-13.18,21.78-13.18,21.78h0Z"/>
    <path class="cls-4" d="M49.9,28.29c-13.16-4.53-29.27,6.31-29.27,28.03,0,35.46,26.28,38.68,29.47,38.68,23,0,44.91-19.01,44.91-45.02,0-28.91-25.11-44.92-44.91-44.92,5.48-.76,29.55,5.93,29.55,38.83,0,21.45-17.97,33.13-29.66,28.14-.27-.1-13.23-5.21-13.23-21.91s13.14-21.84,13.14-21.84h0Z"/>
  </g>
</svg>