<?xml version="1.0" encoding="UTF-8"?>
<svg id="Layer_1" data-name="Layer 1" xmlns="http://www.w3.org/2000/svg" viewBox="0 0 100 100">
  <defs>
    <style>
      .cls-1 {
        fill: #83cd29;
      }

      .cls-1, .cls-2, .cls-3, .cls-4 {
        stroke-width: 0px;
      }

      .cls-2 {
        fill: #404137;
      }

      .cls-3 {
        fill: #009245;
      }

      .cls-4 {
        fill: #f2f2f2;
      }
    </style>
  </defs>
  <g>
    <rect class="cls-4" x=".5" y=".5" width="99" height="99" rx="29.5" ry="29.5"/>
    <path class="cls-3" d="M70,1c15.99,0,29,13.01,29,29v40c0,15.99-13.01,29-29,29H30c-15.99,0-29-13.01-29-29V30C1,14.01,14.01,1,30,1h40M70,0H30C13.5,0,0,13.5,0,30v40c0,16.5,13.5,30,30,30h40c16.5,0,30-13.5,30-30V30c0-16.5-13.5-30-30-30h0Z"/>
  </g>
  <g>
    <g>
      <path class="cls-1" d="M87.79,46.31c-.22,0-.43.05-.62.15l-5.97,3.45c-.39.22-.62.64-.62,1.09v6.88c0,.45.23.87.62,1.09l1.56.9c.76.37,1.04.37,1.38.37,1.12,0,1.76-.68,1.76-1.86v-6.79c0-.1-.08-.16-.18-.16h-.75c-.1,0-.18.07-.18.16v6.79c0,.52-.55,1.05-1.43.61l-1.62-.95c-.06-.03-.1-.09-.1-.15v-6.88c0-.07.04-.13.1-.16l5.95-3.43c.05-.03.12-.03.18,0l5.95,3.43c.06.03.1.1.1.16v6.88c0,.07-.03.13-.09.16l-5.97,3.43c-.05.03-.12.03-.18,0l-1.53-.91s-.1-.03-.15,0c-.42.24-.5.27-.9.41-.1.03-.25.09.05.25l2,1.18c.19.11.4.17.62.16.22,0,.43-.06.62-.16l5.97-3.43c.39-.22.62-.64.62-1.09v-6.88c0-.45-.23-.87-.62-1.09l-5.97-3.45c-.19-.11-.4-.15-.62-.15h0Z"/>
      <path class="cls-1" d="M89.39,51.23c-1.7,0-2.71.72-2.71,1.93,0,1.3,1,1.66,2.64,1.82,1.95.19,2.1.48,2.1.86,0,.67-.53.95-1.79.95-1.58,0-1.92-.39-2.04-1.18-.01-.08-.08-.15-.16-.15h-.77c-.1,0-.18.08-.18.18,0,1,.55,2.19,3.15,2.19,1.89,0,2.98-.74,2.98-2.04s-.88-1.63-2.71-1.87c-1.85-.24-2.03-.36-2.03-.8,0-.36.15-.84,1.52-.84,1.22,0,1.68.26,1.86,1.09.02.08.08.14.16.14h.77s.09-.03.13-.06c.03-.04.06-.08.05-.13-.12-1.42-1.07-2.09-2.98-2.09h0Z"/>
    </g>
    <path class="cls-2" d="M52.71,37.29c-.07,0-.13.02-.19.05-.12.07-.19.19-.19.33v9.69c0,.1-.04.18-.13.23-.08.05-.18.05-.27,0l-1.58-.91c-.24-.14-.53-.14-.76,0l-6.32,3.65c-.24.14-.38.4-.38.67v7.3c0,.27.14.52.38.66l6.32,3.65c.24.14.53.14.76,0l6.32-3.65c.24-.14.38-.39.38-.66v-18.19c0-.28-.15-.53-.39-.67l-3.76-2.1c-.06-.03-.12-.04-.19-.04h0ZM12.04,46.4c-.12,0-.23.03-.34.09l-6.32,3.65c-.24.14-.38.39-.38.66v9.79c.01.14.08.26.2.33.12.07.26.07.38,0l3.75-2.15c.24-.14.39-.39.39-.66v-4.57c0-.27.14-.52.38-.66l1.6-.92c.12-.07.25-.1.38-.1.13,0,.26.03.38.1l1.6.92c.24.14.38.39.38.66v4.57c0,.27.16.52.39.66l3.75,2.15c.12.07.26.07.38,0,.12-.07.19-.19.19-.33v-9.79c.01-.27-.13-.52-.37-.66l-6.32-3.65c-.11-.06-.22-.08-.34-.09h-.08ZM68.85,46.49c-.13,0-.26.03-.38.1l-6.32,3.65c-.24.14-.38.39-.38.66v7.3c0,.27.15.52.39.66l6.27,3.57c.23.13.51.14.75.01l3.8-2.12c.12-.07.2-.19.2-.33,0-.14-.07-.26-.19-.33l-6.36-3.65c-.12-.07-.2-.21-.2-.34v-2.28c0-.14.08-.26.2-.33l1.98-1.14c.12-.07.26-.07.38,0l1.98,1.14c.12.07.19.19.19.33v1.8c0,.14.07.26.19.33.12.07.26.07.38,0l3.79-2.2c.24-.14.38-.39.38-.66v-1.76c0-.27-.14-.52-.38-.66l-6.28-3.65c-.12-.07-.25-.1-.38-.1h0ZM49.95,51.94s.07,0,.1.03l2.17,1.25c.06.03.1.1.1.16v2.51c0,.07-.04.13-.1.16l-2.17,1.25c-.06.03-.13.03-.19,0l-2.17-1.25c-.06-.03-.1-.1-.1-.16v-2.51c0-.07.04-.13.1-.16l2.17-1.25s.06-.03.09-.03h0s0,0,0,0Z"/>
    <path class="cls-1" d="M31.03,46.45c-.13,0-.26.03-.38.1l-6.32,3.64c-.24.14-.38.4-.38.67v7.3c0,.27.14.52.38.66l6.32,3.65c.23.14.53.14.76,0l6.32-3.65c.24-.14.38-.39.38-.66v-7.3c0-.27-.14-.54-.38-.67l-6.32-3.64c-.12-.07-.25-.1-.38-.1ZM68.84,52.96s-.05,0-.08.01l-1.22.71s-.08.07-.08.13v1.39c0,.05.03.1.08.13l1.22.7s.09.03.14,0l1.22-.7s.07-.07.08-.13v-1.39c0-.05-.03-.1-.08-.13l-1.22-.71s-.04-.01-.06-.01h0Z"/>
  </g>
</svg>