<?xml version="1.0" encoding="UTF-8"?>
<svg id="Layer_1" data-name="Layer 1" xmlns="http://www.w3.org/2000/svg" viewBox="0 0 100 100">
  <defs>
    <style>
      .cls-1 {
        fill: #fff;
      }

      .cls-1, .cls-2 {
        stroke-width: 0px;
      }

      .cls-2 {
        fill: #cb3837;
      }
    </style>
  </defs>
  <g>
    <rect class="cls-1" x=".5" y=".5" width="99" height="99" rx="29.5" ry="29.5"/>
    <path class="cls-2" d="M70,1c15.99,0,29,13.01,29,29v40c0,15.99-13.01,29-29,29H30c-15.99,0-29-13.01-29-29V30C1,14.01,14.01,1,30,1h40M70,0H30C13.5,0,0,13.5,0,30v40c0,16.5,13.5,30,30,30h40c16.5,0,30-13.5,30-30V30c0-16.5-13.5-30-30-30h0Z"/>
  </g>
  <path class="cls-2" d="M5,32.5h90v30.01h-45v5h-20v-5H5v-30ZM10,57.5h10v-15h5v15h5v-20H10v20ZM35,37.5v25h10v-5h10v-20h-20ZM45,42.5h5v10h-5v-10ZM60,37.5v20h10v-15h5v15h5v-15h5v15h5v-20h-30.01Z"/>
</svg>