<?xml version="1.0" encoding="UTF-8"?>
<svg id="Layer_1" data-name="Layer 1" xmlns="http://www.w3.org/2000/svg" viewBox="0 0 100 100">
  <defs>
    <style>
      .cls-1 {
        fill: #fff;
      }

      .cls-1, .cls-2 {
        stroke-width: 0px;
      }

      .cls-2 {
        fill: #dd3735;
      }
    </style>
  </defs>
  <g>
    <rect class="cls-1" x=".5" y=".5" width="99" height="99" rx="29.5" ry="29.5"/>
    <path class="cls-2" d="M70,1c15.99,0,29,13.01,29,29v40c0,15.99-13.01,29-29,29H30c-15.99,0-29-13.01-29-29V30C1,14.01,14.01,1,30,1h40M70,0H30C13.5,0,0,13.5,0,30v40c0,16.5,13.5,30,30,30h40c16.5,0,30-13.5,30-30V30c0-16.5-13.5-30-30-30h0Z"/>
  </g>
  <g>
    <path class="cls-2" d="M94.97,47.66c-.03-1.15-.09-2.34-.15-3.49-.06-1.19-.09-2.37-.21-3.55-.21-1.61-.43-3.25-.79-4.83-.27-1.31-.73-2.55-1.18-3.8-.58-1.46-1.15-2.95-1.88-4.34-1.19-2.25-2.73-4.25-4.16-6.35-.94-1.34-2.16-2.43-3.07-3.8-.52-.79-1.28-1.46-2.04-2.07-1.22-.97-2.49-1.85-3.77-2.7-.97-.67-1.94-1.31-2.98-1.88-.82-.46-1.7-.82-2.55-1.22-.97-.46-1.91-1-3.01-1.22-.27-.06-.52-.15-.79-.24-.7-.24-1.37-.52-2.07-.73-1.06-.33-2.1-.73-3.19-1-1.06-.27-2.16-.46-3.25-.61-1.22-.18-2.46-.24-3.68-.36-.79-.09-1.58-.18-2.34-.21-1.15-.06-2.34-.06-3.49-.09-.58-.03-1.18-.09-1.76-.06-.88.03-1.76.12-2.64.24-.85.09-1.7.24-2.52.36-1,.12-2,.18-3.01.3-.94.12-1.91.3-2.86.46-.33.06-.67.18-1,.24-.73.15-1.49.21-2.22.46-1.31.39-2.61.85-3.89,1.34-1.18.49-2.34,1-3.46,1.61-1.15.64-2.25,1.4-3.34,2.13-1.03.7-2.07,1.43-3.07,2.22-.97.76-1.88,1.61-2.76,2.46-.49.49-.88,1.06-1.34,1.61-.76.88-1.52,1.73-2.25,2.64-.61.76-1.15,1.55-1.73,2.34-1.03,1.4-1.91,2.89-2.73,4.37-.33.61-.64,1.22-.94,1.82-.46.91-.94,1.79-1.37,2.73-.3.64-.55,1.34-.73,2.04-.43,1.49-.85,3.01-1.25,4.5-.36,1.34-.46,2.73-.49,4.1-.03,1.21.09,2.4.21,3.62.03.3-.15.67.21.91.03,0,0,.12-.03.15-.09.18,0,.36.18.43,0,0,.03.03.03.06h-.15c-.09.27.21.49.09.79-.03.06.09.18.15.27,0,.09-.03.21,0,.3.03.27.15.55.15.85,0,.21.18.46.24.67.03.09,0,.24-.06.3-.18.21-.15.4.12.52.06.03.15.15.15.21,0,.18-.06.36-.09.55.06.06.09.12.06.18,0,.09-.09.18-.06.24.24.49.33,1.03.36,1.58,0,.12.06.24.12.4.03,0,.12,0,.18.03l-.18.55c.15-.09.27-.12.43-.18.09.4.18.76.3,1.09.03.06.09.12.18.18-.03.06-.03.18-.09.21.12.55.18,1.06.39,1.58.03,0,.06-.03.09-.03-.09-.55-.15-1.12-.24-1.67v-.18s.06-.03.09-.03c.03.12.09.27.09.36.24,0,.61.15.85.15.03-.09.06-.21.09-.27-.18-.18-.33-.46-.52-.64.06.24,0,.33,0,.43-.12-.06-.27-.12-.43-.18.12-.15.24-.3.43-.49,0-.27-.15-.52-.58-.49.18-.06.36-.15.58-.21.03.09.06.18.09.24.24-.43-.12-.76-.12-1.18.03-.52-.27-1.03-.36-1.58-.15-.85-.12-2.13-.21-2.98,0-.06-.09-.12-.15-.18-.03.03-.18.43-.21.46.09.73.18,1.46.24,2.19-.03,0-.06,0-.06.03-.12-.64-.24-1.31-.39-2.04-.03.21-.06.3-.06.43-.09-.03-.12-.06-.27-.12.12.27.24.46.33.67-.21-.09-.46-.06-.46-.06v.85c-.3-.3-.4-.55-.55-.76-.06-.24-.09-.49-.15-.73l.09-.03c-.03-.12-.09-.21-.09-.3-.03-.21-.06-.46-.09-.73.03-.03.15-.06.21-.12l-.24-.36c.24.03.4.06.55.06,0-.06.03-.09,0-.12-.3-.27-.09-.52.03-.76.06-.12.27-.15.33-.27.24-.46.64-.82.64-1.4,0-.27.09-.58.12-.85.06-.52.12-1.03.15-1.55.06-.67,0-1.34.15-1.97.24-1.06.55-2.13.88-3.19.24-.76.52-1.49.82-2.25.46-1.19.88-2.37,1.46-3.49.82-1.64,1.76-3.22,2.67-4.83.58-1,1.19-1.94,1.82-2.92.61-.94,1.22-1.91,1.91-2.79.97-1.25,2.04-2.4,3.22-3.43,1.22-1.09,2.37-2.22,3.68-3.22,1.7-1.31,3.49-2.46,5.41-3.46,1.55-.82,3.16-1.46,4.77-2.07,1.03-.39,2.16-.58,3.22-.91,1.22-.4,2.43-.58,3.71-.61.82-.03,1.61-.12,2.43-.21.73-.06,1.46-.12,2.25-.21-.09.12-.12.18-.15.24-.33.49-.7.97-1.03,1.46-.27.4-.58.82-.85,1.22-.49.64-1,1.28-1.46,1.94-.7,1-1.34,2.04-2.07,3.04-.73.97-1.52,1.88-2.28,2.83-1,1.31-1.94,2.64-2.95,3.95-.91,1.25-1.88,2.43-2.76,3.68-.79,1.09-1.49,2.25-2.25,3.37-1.12,1.67-2.25,3.31-3.37,4.98-.88,1.28-1.76,2.52-2.67,3.8-.06.09-.15.12-.24.18-.06.06-.18.12-.18.18-.06.21-.06.43-.15.61-.24.46-.49.91-.76,1.34-.15.24-.36.46-.55.7-.06-.03-.09-.06-.15-.06.12-.3.64-.49.4-.94-.15.24-.3.46-.46.7l-.36.73c.12.09.33.15.12.33-.09.15-.18.33-.27.49.03,0,.03.03.06.03.09-.12.18-.21.27-.33.03,0,.06.03.09.03-.09.3-.27.58-.43.85-.12.24-.43.43-.64.61.03.03.24.12.27.15.09-.12.12-.06.21-.18.06.09.15-.06.18.03.09-.12.18-.21.21-.3.12-.3.3-.55.61-.67.12-.06.21-.15.3-.24.91-.94,1.85-1.85,2.67-2.86,1.28-1.55,2.43-3.16,3.65-4.74.52-.67,1.12-1.34,1.67-1.97.06.03.12.03.15.06-.06.64-.12,1.31-.15,1.94-.09,1.12-.15,2.25-.24,3.4-.03.46,0,.91-.03,1.37,0,.12-.09.21-.09.33,0,.3.09.64.09.94-.09,1.12-.21,2.22-.3,3.34-.03.24.09.49.15.7-.03-.03-.06-.06-.15-.12,0,1.76.33,3.49.06,5.23.12-.03.18-.06.18-.12.03-.21.09-.43.09-.64.03-.18,0-.36,0-.58v-.3c.03-.55.15-1.12.09-1.67-.06-.61-.06-1.19.06-1.76.06-.24-.03-.55.12-.85v.46c-.03,1.73.03,3.46-.21,5.2-.03.15.09.43-.24.39-.03,0-.06.15-.12.24-.15.3.18.7-.12,1-.06.06.06.33.09.52,0,.06.03.12,0,.15q-.12.21.06.24c.03.67.09,1.28.12,1.91h.09c.4-1.15.15-2.34.36-3.52.03.49.06.97.03,1.49,0,.79-.03,1.55-.06,2.34,0,.15-.03.3-.06.46-.09.43-.12.85-.27,1.25-.12.3-.06.76-.06,1.12v1.15s.09.12.09.24c.03.27-.12.55-.03.85.03.06-.03.15-.06.21-.03.09-.06.18-.03.27l.09.46s.03.06.06.12c.03-.12.03-.21.03-.24.52.06.24.52.49.76-.12.06-.21.09-.21.12.03.12.09.21.09.33,0,.27-.03.52-.06.79,0,.7-.03,1.4-.03,2.07,0,.09.03.18.03.27,0,.06-.03.12-.03.21v.64h.12c-.06.09-.12.18-.21.27-.03,0-.12,0-.12-.03v-3.83h-.46c-.06,1.82.09,3.46-.24,5.16-.36.03-.49.09-.88.09-.94,0-1.88,0-2.83.03-1.12,0-2.22.03-3.34.03-.55,0-1.12.06-1.67.06-.73,0-1.49-.09-2.22-.09-1.12,0-2.22.09-3.34.12-.82.03-1.64.03-2.46.06-.55.03-1.09.06-1.64.12-.24.03-.46.12-.76.21-.09,0-.3-.03-.49,0-.3.06-.58.24-.88.3-.46.09-.58.21-.52.67v.3c-.06-.06-.15-.12-.21-.15-.03,0-.06.03-.06.03.03.09.09.15.12.24.12-.06.27-.21.4-.21h.43c-.06,0-.09.18-.18.33.24-.09.4-.15.55-.21.03.09.03.21.03.24.43-.03.82-.15,1.18-.06,1.19.3,2.4.43,3.62.55.79.06,1.55.09,2.34.12,1.12.06,2.25.12,3.37.12.94,0,1.85-.09,2.8-.09,1.31,0,2.61.06,3.92.09.27,0,.58-.03.88-.03h2.22c1.97-.06,3.95-.09,5.92-.15,1.12-.03,2.28-.09,3.4-.12l3.46-.09c1.34-.03,2.67-.03,3.98-.06,1,0,1.98-.03,2.98-.06,1.12-.03,2.28-.12,3.4-.18.61-.03,1.22-.09,1.82-.15.73-.06,1.49-.15,2.22-.18,1.09-.06,2.22-.09,3.31-.15,1.37-.09,2.73-.21,4.13-.24,1.28-.06,2.58-.03,3.86-.06,1.12-.03,2.25-.09,3.4-.12l1.91-.09s1.28-.03,1.91-.09c1.09-.06,2.19-.18,3.28-.21.7-.03,1.4,0,2.1-.03,1.12-.03,2.28-.09,3.4-.09.43,0,.88.06,1.43.09-.24.21-.39.33-.58.49.12.03.24.09.36.15,0,.03-.03.06-.03.12-.15,0-.3.03-.46.03-.06.15-.12.21-.18.52h.55c-.21,0-.39.27-.61.46.03.03.06.03.09.06-.33-.12-.55-.06-.67.27.09.03.15.03.24.03-.03.09-.06.18-.09.3-.03.06-.06.12-.06.21l-.09-.09c0-.06,0-.12-.03-.18-.18.18-.46.3-.3.7-.12.06-.27.12-.43.21.03.06.09.12.12.21-.27.03-.55.09-.49.43.12.03.24.09.33.12-.15.06-.3.15-.46.21-.03.06-.06.21-.12.24-.43.09-.18.24-.06.39-.09.06-.18.12-.27.15.09.03.15.06.21.12-.09.06-.15.09-.21.12.06.03.15.09.18.09-.12.09-.27.21-.46.36,0,.06,0,.09.03.15-.12.12-.24.24-.36.43-.12.18-.18.43-.33.61-.64.7-1.09,1.52-1.91,2.07-.3.21-.58.49-.85.76-.55.52-1.03,1.09-1.61,1.58-.76.64-1.55,1.22-2.37,1.79-1,.7-2,1.4-3.01,2.07-.55.36-1.15.64-1.73.97-.58.33-1.12.64-1.7.97-.36.24-.7.58-1.09.76-1,.43-2.07.79-3.1,1.18-.09.03-.15.06-.24.09-.76.33-1.49.7-2.25.97-.7.24-1.43.43-2.16.58-.24.06-.52,0-.79.03-.52.09-1.03.21-1.55.27-1.34.18-2.67.3-4.01.49-.79.09-1.55.24-2.34.33-.55.03-1.12-.03-1.67-.03-.39,0-.82.09-1.22.03-.64-.09-1.28-.24-1.91-.36-.15-.03-.36-.09-.49-.03-.24.12-.46-.06-.7,0-.15.03-.3-.09-.46-.09-.12-.03-.27.03-.43,0-.33-.09-.64-.21-1-.18-.36.03-.73-.15-1.12-.24-.55-.12-1.06-.24-1.61-.36-.21-.06-.39-.15-.61-.27-.06.03-.15.09-.27.09-.52-.09-1.03-.12-1.52-.3-.43-.15-.82-.36-1.28-.3-.12.03-.21-.03-.33-.03-.09-.12-.18-.36-.27-.36-.61.03-.97-.49-1.49-.64-.27-.09-.49-.4-.76-.49-.67-.27-1.22-.85-1.97-.94-.24-.03-.49-.15-.76-.24.09.12.15.21.24.3l-.06.06c-.82-.49-1.64-.97-2.46-1.43-.12-.03-.21-.15-.3-.21l-.82-.55c-.09-.06-.27-.15-.27-.12-.18.21-.36.03-.49-.03-.82-.58-1.76-.94-2.55-1.58-.33-.27-.73-.46-.97-.79-.43-.52-.94-.88-1.52-1.18-.46-.24-.88-.52-1.31-.79-.21-.15-.43-.33-.43-.67,0-.21-.09-.43-.36-.3-.12-.18-.24-.4-.39-.46-.36-.15-.61-.43-.88-.67-.27-.24-.49-.58-.82-.7-.61-.24-.97-.76-1.34-1.19-.85-1-1.61-2.1-2.4-3.16-.06-.09-.18-.15-.27-.24l-.03.03c.15.3.3.58.46.88-.03.03-.09.06-.12.09-.18-.21-.4-.43-.58-.64-.03.03-.06.06-.09.06l2.19,3.46c.18.27.33.55.52.82-.03.03-.06.06-.12.09-.33-.06-.64-.3-.79-.58-.27-.49-.58-.79-1.18-.73-.06-.21-.12-.46-.15-.67-.12,0-.21,0-.43-.03.43.67.79,1.25,1.18,1.91-.15-.09-.24-.15-.3-.18.55.58.94,1.31,1.64,1.67.15.7.94,1.03,1.12,1.7-.15-.03-.27-.06-.43-.09-.24-.3-.52-.61-.79-.94.06.21.15.39.27.55.36.46.7.91,1.12,1.31.15.15.36.21.36.49.06-.06.12-.09.24-.15-.06.12-.09.18-.12.27.12,0,.21.03.3.03.06.18-.03.46.33.4.03,0,.06.03.09.06.15.39.39.39.73.24.06-.03.21,0,.24.06.15.33.36.36.64.12,0,.15.03.3.03.43h.12c0-.06-.03-.15-.03-.3.15.12.24.18.3.24.3.43.58.82,1,1.15.58.49,1.09,1,1.64,1.46,1.06.88,2.25,1.61,3.43,2.28,1.46.82,2.86,1.7,4.34,2.49,1.79.94,3.71,1.58,5.68,2.04.73.15,1.43.3,2.16.49.64.18,1.28.46,1.91.61.97.21,1.98.39,2.95.58.21.03.43.06.67.09v.06c.27,0,.61-.12.67-.03.15.24.27.12.46.09.21-.06.46-.06.7-.06.85.03,1.67.21,2.52.15.18,0,.46-.15.61.15.06-.03.09-.06.15-.09.12-.03.27-.03.39-.06v.06c-.06.03-.12.03-.24.06.15.03.24.06.33.09-.06.06-.09.06-.15.09-.06.03-.15.06-.27.15,1.09.21,2.13.24,3.04,0v-.18h.12c0,.06.03.12.06.18,1.4.12,2.76-.06,4.07-.52.12.15.21.36.4.06.06-.09.21-.12.33-.15.27-.06.61-.18.85-.09.27.09.36-.15.58-.15.36,0,.7-.03,1.03-.09.18-.03.36-.12.58-.18,0-.03,0-.06-.03-.09-.21-.03-.46-.06-.64-.06.36-.18.7-.33,1.03-.49,0,.03.03.03.03.06-.09.03-.15.15-.27.15h.43c-.09,0-.21.27-.36.46,1.09-.27,2.1-.52,3.07-.76v-.06c-.12.03-.21.03-.3.06-.03-.64.67-.43.91-.79-.3.09-.61.18-.91.24v-.06c1.03-.46,2.1-.91,3.13-1.37,0,.03.03.03.03.06-.18.12-.36.21-.64.36.18.03.3.03.39.06,0,.09,0,.15-.03.18.52-.03.39-.49.55-.76.09.03.21.09.3.06.27-.06.52-.15.79-.24.3-.09.61-.18.91-.3.49-.21.94-.49,1.43-.73.09-.03.24,0,.36,0,.09,0,.15-.06.21-.12.12-.09.24-.27.33-.24.43.06.73-.09.85-.49.03,0,.03-.03.06-.03.15-.12.3-.24.46-.33.67-.36,1.31-.73,1.98-1.09.03-.03.09,0,.15,0,.09,0,.21,0,.27-.03.4-.18.76-.39,1.12-.61-.09-.03,0-.06-.3-.09v-.06c.3-.06.39-.09.58-.15l-.06-.06c.79-.79,1.79-1.37,2.55-2.04.15.03.21.06.3.06.03-.09.03-.18.03-.24.12-.15.24-.33.39-.46.67-.61,1.4-1.12,2.01-1.76.88-.88,1.73-1.79,2.52-2.73.73-.85,1.46-1.7,2.07-2.64.85-1.31,1.58-2.64,2.34-4.01.55-.97,1.03-1.94,1.58-2.92.06-.09.18-.21.27-.21.82-.09,1.64-.15,2.43-.24.18-.03.39-.15.58-.24-.09-.15-.15-.33-.24-.49-.12-.18-.3-.33-.43-.52-.12-.15-.21-.33-.3-.52-.09-.15-.18-.27-.27-.43-.18-.33-.36-.67-.52-1.03-.03-.09-.09-.24-.06-.33.55-1.18.76-2.46,1.28-3.65.52-1.22.67-2.58.91-3.89.21-1.25.33-2.49.49-3.74.09-.88.21-1.73.24-2.61.18-1.4.12-2.7.09-4.01h0ZM18.59,81.56c-.21-.24-.39-.52-.61-.76l.09-.09c.33.36.67.73,1,1.12-.18-.09-.39-.15-.49-.27h0ZM19.07,81.83c.09-.03.18-.03.27-.06.09.15.15.33.24.52-.43-.03-.64-.21-.52-.46h0ZM50.67,94.38v-.09c.58-.06,1.12-.12,1.7-.18v.09c-.58.09-1.12.15-1.7.18h0ZM58.32,93.59c-.43.09-.88.15-1.31.21-.15.03-.33.18-.39-.09-.06.03-.12.03-.18.06.15.46.52.09.82.27-.67.09-1.31.15-1.94.24v-.06c.18-.03.39-.06.58-.09v-.09c-.3-.03-.61-.06-.91-.06-.09,0-.21.12-.3.15-.12.03-.24.06-.4.06-.52.03-1.03.03-1.52.06-.03,0-.09-.03-.12-.03v-.09c2.04-.27,4.04-.55,6.08-.82.03.06.03.12.06.18-.18,0-.3.06-.46.09h0ZM58.78,93.29c.7-.09,1.34-.15,2.01-.24-1.4.39-1.85.46-2.01.24h0ZM32.32,31.95c.97-1.34,1.97-2.67,2.95-4.04.3-.39.55-.82.85-1.22.09-.12.21-.18.36-.3l-.03-.06c.12-.15.24-.27.3-.4.15-.24.24-.52.36-.79.03-.06.12-.12.12-.12.43.21.43-.24.58-.4.27-.3.55-.64.79-.94.18-.24.36-.46.52-.73.03-.09-.06-.24-.09-.36h-.09c.09-.06.18-.15.27-.21t.06-.03c.18-.27.36-.55.55-.79.36-.49.76-.97,1.18-1.4-.06.15-.12.3-.18.43.03,0,.03.03.06.03.36-.49.76-.94,1.12-1.43-.03-.03-.06-.06-.09-.06-.15.15-.27.3-.43.46-.03-.03-.06-.06-.09-.06.3-.4.61-.79.91-1.25.06.09.12.21.24.46.12-.3.24-.52.33-.73-.09.09-.21.18-.3.27l-.09-.09.55-.82c.58-.82,1.15-1.67,1.73-2.49.21-.3.49-.55.67-.85.58-1.15,1.49-2.07,2.19-3.13.15-.21.36-.39.55-.58.15-.18.27-.12.4.03.82,1.03,1.64,2.1,2.46,3.13.61.76,1.22,1.49,1.79,2.28.7.97,1.37,1.94,2.07,2.92.79,1.12,1.58,2.25,2.34,3.4,1.15,1.7,2.25,3.4,3.4,5.1.85,1.25,1.7,2.46,2.52,3.71h-1.55c-1.43-.03-2.89-.15-4.31-.09-1.94.09-3.92.3-5.86.46-2.46.21-4.95.24-7.41.24-.88,0-1.76.12-2.64.18-1.06.06-2.1.12-3.16.15-1.25.06-2.46.09-3.71.12-.7.03-1.43,0-2.19,0h0ZM67.17,45.92v.27s-.06.03-.12.03c-.12-.43-.24-.88-.39-1.31-.3-.88-.64-1.76-1.18-2.55-.61-.85-1.15-1.73-1.76-2.61-.15-.21-.36-.4-.55-.58-.64-.7-1.28-1.43-2.1-1.94-1.22-.76-2.46-1.4-3.8-1.94-.36-.15-.7-.33-1.06-.55h.73l5.2-.09c1.12-.03,2.22-.03,3.34-.09.27,0,.43.09.58.33.27.46.55.91.85,1.37.03.06.09.15.09.24,0,.67,0,1.37.03,2.04.03.7.09,1.37.12,2.07,0,.7-.06,1.43-.03,2.16.03,1.03.06,2.1.06,3.16h0ZM34.48,35.75c1.43-.06,2.79-.15,4.19-.21,1.09-.06,2.22-.09,3.31-.15.46-.03.88-.06,1.34,0-.49.24-.97.49-1.4.79-.55.36-1.06.85-1.61,1.25-.55.39-1.03.88-1.49,1.4-.58.7-1.22,1.31-1.82,1.97-.43.49-.91.94-1.28,1.46-.52.67-.97,1.4-1.46,2.16.15-2.89.33-5.74.21-8.66h0ZM54.31,64.97c-.97.24-1.97.52-2.98.64-.85.12-1.73.09-2.61.09-.79,0-1.55-.03-2.34-.09-.88-.09-1.76-.18-2.61-.58-.73-.33-1.49-.64-2.22-1-.73-.36-1.46-.79-2.01-1.46-.4-.49-.94-.88-1.43-1.31.09.36.3.67.64.88-.15.18-.36.09-.67-.39-.09.06-.18.09-.24.12.09-.21.18-.43.27-.61-.12-.24-.27-.52-.39-.76-.24-.4-.49-.82-.7-1.22-.06-.09-.06-.18-.12-.27-.15-.18-.3-.36-.43-.55-.24-.36-.46-.76-.76-1.12,0,.09.03.18.03.3-.03,0-.06.03-.06.03l-.64-1.55s-.03,0-.06.03l.55,2s-.06.03-.09.03c-.09-.12-.18-.24-.24-.4-.06-.24-.24-.24-.4-.15-.09.06-.15.27-.12.36.21.52.46,1.03.7,1.55.06.18.12.33.21.52.03.06.12.12.12.21.12.24.21.49.36.7.27.36.58.73.85,1.09s.52.76.76,1.12c.03.06.12.06.15.09.15.46.67.79,1.03.61.09.7.85.94,1.15,1.61-.36-.15-.64-.27-.88-.4-.03.03-.03.06-.06.12.36.18.73.36,1.06.58.3.18.61.36.88.58.36.33.79.52,1.31.64-.03-.09-.06-.12-.06-.12.85.4,1.73.82,2.4,1.15-3.16.06-6.53.12-10.03.18,0-.58-.03-1.12-.03-1.7,0-.24.06-.46.03-.7-.09-1.4-.09-2.79-.27-4.16-.18-1.46-.18-2.89-.15-4.34.03-.79-.03-1.61-.06-2.4,0-1.06,0-2.1.03-3.16,0-.15.06-.27.12-.43h.09c.03.06,0,.15.06.18.09.09.24.24.3.21.18-.12.46-.24.52-.43.15-.36.21-.76.21-1.12,0-.27.12-.46.24-.64.06-.09.09-.18.15-.3-.12-.09-.24-.15-.4-.27.12-.33.09-.73.55-.91.06-.03.06-.18.09-.27.03-.24.06-.52.09-.76.06.09.09.12.15.18.03-.06.06-.09.06-.09,0-.12-.03-.36,0-.36.36-.06.21-.46.4-.64.03-.03-.03-.12-.03-.18s0-.15.03-.15c.43-.09.36-.55.64-.76.09-.06.12-.15.24-.3.24.43-.18.64-.21.94.52-.3.67-1.03.36-1.25.12-.09.24-.21.33-.33.33-.36.7-.7,1-1.06.21-.27.33-.61.55-.88.12-.15.36-.27.55-.36.55-.3,1.06-.64,1.4-1.15.06-.06.15-.12.24-.18.09-.06.27-.06.3-.15.03-.06-.06-.21-.12-.3.12-.06.24-.18.49-.3-.09.18-.12.3-.18.43l.15.15c.27-.21.7-.46.97-.64,0-.03-.15-.15-.15-.15-.18.09-.46.24-.73.36.06-.09.06-.15.09-.18.43-.27.85-.55,1.31-.76,1.06-.49,2.13-.97,3.19-1.43.18-.09.43-.03.64-.03.09,0,.15,0,.24-.03.49-.15.97-.3,1.46-.43.21-.06.46-.09.67-.09.91.03,1.82.03,2.73.09.39.03.76.12,1.12.24.46.15.94.36,1.37.58.52.27,1,.58,1.49.91.88.58,1.7,1.22,2.58,1.73.85.52,1.52,1.22,2.07,2,.67.94,1.43,1.79,1.73,2.95l.46,2.01c.09.36.3.73.21,1.15-.15.76-.27,1.55-.39,2.31-.06.3-.12.61-.09.91.06.94-.3,1.76-.67,2.61-.12.27-.3.55-.46.85.03.03.21.12.24.12l.27-.55s.03,0,.06.03c-.15.43-.27.88-.43,1.31-.36.94-.73,1.91-1.18,2.83-.24.52-.67.94-.97,1.43-.3.43-.55.88-.85,1.28-.27.33-.55.67-.91.91-.82.61-1.67,1.21-2.55,1.7-.55.33-1.19.52-1.79.67h0ZM38.12,63.36l-.03.03c-.06-.03-.15-.06-.21-.12l-.73-1.09c-.06-.09-.09-.18-.06-.3.33.52.67,1,1.03,1.49h0ZM57.02,67.52c1.37-.58,2.49-1.4,3.52-2.34.15-.15.3-.3.49-.43,1.28-.79,2.22-1.88,3.07-3.1.97-1.4,1.61-2.98,2.4-4.47.06-.12.12-.24.18-.33-.06,3.46.33,6.87.79,10.3-3.43.12-6.93.24-10.45.36h0ZM87.83,66.61c-.03.06-.09.12-.12.18-.03-.06-.03-.15-.06-.27-.18.49-.58.24-.85.24-1.64.03-3.31.03-4.95.03s-3.19,0-4.77.03c-.52,0-1.06.12-1.58.15-1.25.06-2.49.09-3.74.12-.09,0-.18-.15-.33-.27-.03.06-.09.15-.18.27-.03-.06-.09-.12-.15-.21-.03.09-.06.18-.09.24h-.09c-.06-.43-.18-.82-.18-1.25,0-.91.09-1.82.12-2.73.03-.43,0-.82,0-1.22.12.09.21.15.33.24.06-.12.12-.21.18-.3,0,0-.06-.03-.12-.09.06-.03.12-.09.12-.12.03-.09.09-.18.09-.24,0-.21-.06-.39-.09-.58.03,0,.06,0,.09-.03l.18.91h.09c-.12-.21.27-.39-.06-.64-.03-.03.03-.21.03-.3-.09-.18-.15-.36-.24-.61.03-.03.12-.06.21-.09-.12-.06-.21-.12-.3-.15.3-.27.3-.43.03-.73.06-.03.12-.03.12-.06,0-.27,0-.55-.06-.82-.06-.3.09-.67-.36-.85.03.09.06.15.12.24,0,0-.09.03-.18.09-.39-.36-.15-.85-.24-1.4.21.06.36.12.52.18-.06-.21-.21-.46-.3-.73h-.12v-2s.21.03.33.06c0-.03.03-.06.03-.09-.09-.12-.21-.24-.33-.39l.06-.06c-.24-.3-.12-.73-.12-.82v-2.13c.3.3-.15.7.3.88v-.3h-.03c-.03-.46-.03-.91-.06-1.37h-.06c-.03.06-.03.09-.06.15h-.06c.06-2.4.12-4.8.18-7.26.3.4.64.76.85,1.15.7,1.28,1.61,2.37,2.46,3.52.73,1,1.4,2.1,2.07,3.13.82,1.25,1.61,2.49,2.43,3.74.61.94,1.25,1.88,1.88,2.79.58.82,1.18,1.61,1.79,2.4.52.7,1.06,1.4,1.58,2.1.61.85,1.22,1.7,1.82,2.52.3.43.64.85.97,1.28.18.24.46.43.64.58-.03,0-.06,0-.12-.03.09.12.15.21.21.27.33.18.36.36.18.64h0ZM89.38,59.02v-.21c0,.06.03.15,0,.21h0ZM90.41,45.62s-.21-.18-.24-.21c-.03.09,0,.18-.06.3-.03-.09-.24-.06-.24-.15-.03.43.18.85.15,1.28.09-.06.46-.09.55-.18.03.03.09.06.12.06-.61.46-.46.91-.18,1.43.06.12.24.36.06.61-.06.06.03.24.06.4h.09v.06l-.27.09c-.06-.09-.43-.27-.43-.43v1.55c.3.09.3.52.43.73.06-.09.09-.15.12-.24l.03.03c-.03.18-.06.36-.12.55-.06.27-.12.52-.15.79,0,.03.06.09.06.12-.33.76-.15,1.61-.27,2.4-.09.58,0,1.18-.06,1.79-.06.52-.18,1.06-.3,1.58-.03.09-.09.12-.24.18.06-.36.03-.61-.03-.94-.03,0-.43-.21-.46-.21,0,.43.24,1,.33,1.49-.09-.03-.46-.24-.49-.24-.06.36-.06.85-.09,1.25-.03.3-.3.58-.33.91,0,.18.21.3.18.61h.24c0-.61.27-1.15.27-1.79h.09c.03.06.12.12.09.15-.06.33-.18.7-.15,1.03,0,.18.15.36.09.58-.06.18-.09.36-.12.64-.03-.15-.06-.21-.06-.3-.03,0-.3-.03-.33-.03-.03.18.21.36.18.52-.03.03-.06.03-.12.06l-1-1.46c-.79-1.15-1.58-2.31-2.37-3.49-.21-.3-.39-.61-.55-.91-.94-1.61-1.97-3.16-3.13-4.65-.88-1.12-1.58-2.34-2.4-3.52-.76-1.12-1.52-2.22-2.28-3.34-.27-.36-.61-.7-.85-1.09-.79-1.25-1.49-2.52-2.28-3.77-.67-1.03-1.4-2.04-2.1-3.04-.24-.33-.49-.7-.73-1.06-.03-.06-.06-.12-.06-.21-.06-.67-.12-1.34-.15-1.97,0-.61.06-1.22.06-1.85v-.55c0-.15.03-.27.03-.43.03-.03.06-.09.09-.12-.88,0-1.79-.03-2.67,0-.58.03-.88-.21-1.28-.64-1.15-1.31-2.01-2.8-3.01-4.19-.94-1.34-1.91-2.64-2.89-3.95-.79-1.06-1.58-2.1-2.37-3.16-.88-1.22-1.73-2.43-2.64-3.65-1.09-1.46-2.22-2.92-3.34-4.37-.52-.67-1.09-1.31-1.67-2.01.39.06.76.12,1.12.15l1.46.09c1.09.09,2.19.15,3.28.3.91.12,1.82.3,2.76.46,2.01.33,3.98.88,5.89,1.52,1.12.36,2.22.85,3.31,1.31,2.46,1,4.8,2.22,7.11,3.49.73.39,1.15,1.03,1.7,1.61.79.82,1.58,1.64,2.34,2.49.88,1,1.7,2.04,2.55,3.07.76.91,1.55,1.82,2.31,2.73.24.27.43.61.64.91.49.73,1.03,1.43,1.46,2.22.3.58.49,1.25.7,1.88.3.94.61,1.85.91,2.8.21.7.39,1.43.55,2.16.12.49.09,1,.24,1.49.18.64,0,1.34.18,1.97.03.06.06.15.09.21.12.12.21.24.03.43-.03.03-.03.15,0,.24.06-.06.09-.12.15-.21,0,.06.03.09.03.12,0,.12-.03.24,0,.36,0,.06.06.15.09.21.06-.06.12-.09.24-.18.27,1.03.3,2.07.3,3.13,0,1,.18,2-.24,2.98.09-.33-.12-.64-.03-.94h0Z"/>
    <path class="cls-2" d="M71.09,57.53s.06.03.06.03l-.03-.03s0-.03-.03,0h0ZM75.89,87.55c-.33.24-.67.46-1.09.55-.03-.03-.03-.06-.06-.09.33-.21.7-.43,1.03-.64.03.06.09.12.12.18h0ZM18.93,46.38c.33-.43.67-.85,1.03-1.28.03.03.27.09.3.12-.33.43-.79,1-1.12,1.46-.06-.06-.15-.27-.21-.3h0ZM10.3,61.27c-.24-.52-.49-1.06-.73-1.58.03-.03.24-.12.27-.12.33.49.49,1.06.73,1.58,0,0-.24.12-.27.12h0ZM18.05,46.69c-.18.27-.36.58-.55.85-.03-.03-.36.12-.39.09.18-.27.64-.76.82-1.03.03.03.06.06.12.09h0ZM72.64,88.8s.03-.03.06-.03c.21.03.46.06.7.06-.4.27-.64.24-.76-.03h0ZM18.11,47.96c.03-.09.09-.18.15-.27.06,0,.15-.03.15-.03.12-.21.12-.36.24-.55-.03-.03-.06-.03-.09-.06-.18.12-.36.27-.55.4.06.06.06.09.06.15-.24-.03-.33.09-.46.43-.03.09-.18.12-.33.24-.03.06-.06.21-.12.36l.03.03c-.06.06-.15.09-.15.09-.18.18-.4.33-.58.52-.03.09-.06.18-.06.27.21-.21.58-.61.85-.85l.03.03c.12-.18.21-.36.33-.55.03.03.03.06.06.09-.09.24-.18.52-.27.76-.06.03-.15.09-.15.06-.12.09-.21.21-.33.3l-.55.36c-.3.27-.61.52-.94.79-.21.33-.43.64-.67,1.03.36-.09.46.06.43.36.43.06.46-.27.58-.52.03-.06.06-.18.12-.21.27-.24.58-.46.88-.7.06-.06.06-.18.06-.27,0-.03-.15-.03-.24-.06.27-.3.67-.82.94-1.15.15-.09.3-.21.3-.3-.03-.33.18-.43.43-.55-.12-.09-.15-.18-.15-.21h0Z"/>
    <path class="cls-2" d="M18.72,47.63c-.12.21-.24.4-.36.61l-.18-.09c-.12.7-.55,1.31-.97,1.43.12.06.24.12.33.09.09-.03.15-.18.21-.27l.82-1.19.27-.46-.12-.12h0ZM8.6,60.97c.15,0,.3.03.49.03,0-.12.15-.09.15-.21h.09c0,.15.03.27.03.43h-.64s-.15-.21-.12-.24h0ZM8.36,59.57c-.09-.09-.24-.18-.24-.27-.03-.12.06-.27.15-.43.06.21.09.39.15.61-.03.03-.06.06-.06.09h0ZM9.12,57.62c.12.3.24.64.36.94-.03,0-.21.09-.24.12-.12-.3-.27-.64-.39-.94.03-.03.21-.12.27-.12h0ZM76.75,86.67c.15-.06.33-.09.58-.15-.27.21-.49.36-.67.55-.03-.03-.06-.06-.09-.06.06-.12.12-.21.18-.33h0ZM39.41,22.47c.18-.12.33-.21.52-.33l.06.06c-.18.24-.33.49-.55.79-.03-.21-.03-.33-.06-.49-.03,0,0,0,.03-.03h0ZM48.31,37.85c.27-.12.55-.24.88-.39-.03.18-.03.3-.03.43-.09-.03-.21-.06-.3-.06-.18.03-.52.27-.67.3-.03,0,.12-.24.12-.27h0ZM71.09,63.61c.06.3.64.46.06.76.09.06.18.09.27.15,0,.03-.03.09-.06.12-.06.03-.18.09-.24.06-.03,0-.09-.12-.09-.18,0-.27.03-.55.06-.91h0Z"/>
  </g>
</svg>