<?xml version="1.0" encoding="UTF-8"?>
<svg id="Layer_1" data-name="Layer 1" xmlns="http://www.w3.org/2000/svg" viewBox="0 0 100 100">
  <defs>
    <style>
      .cls-1 {
        fill: #56b3b4;
      }

      .cls-1, .cls-2, .cls-3, .cls-4, .cls-5, .cls-6, .cls-7 {
        stroke-width: 0px;
      }

      .cls-2 {
        fill: #ea5e5e;
      }

      .cls-3 {
        fill: #f7ba3e;
      }

      .cls-4 {
        fill: #bf85bf;
      }

      .cls-5 {
        fill: #1a2b34;
      }

      .cls-6 {
        fill: #d0d4d8;
        isolation: isolate;
        opacity: .5;
      }

      .cls-7 {
        fill: #fbb03b;
      }
    </style>
  </defs>
  <g>
    <rect class="cls-5" x=".5" y=".5" width="99" height="99" rx="19.5" ry="19.5"/>
    <path class="cls-7" d="M80,1c10.48,0,19,8.52,19,19v60c0,10.48-8.52,19-19,19H20c-10.48,0-19-8.52-19-19V20C1,9.52,9.52,1,20,1h60M80,0H20C9,0,0,9,0,20v60c0,11,9,20,20,20h60c11,0,20-9,20-20V20c0-11-9-20-20-20h0Z"/>
  </g>
  <g>
    <path class="cls-1" d="M68.71,25.24h4.49c.86,0,1.56.7,1.56,1.56v.68c0,.86-.7,1.56-1.56,1.56h-4.49c-.86,0-1.56-.7-1.56-1.56v-.68c0-.86.7-1.56,1.56-1.56Z"/>
    <path class="cls-2" d="M11.56,86.19h19.73c.86,0,1.56.7,1.56,1.56v.68c0,.86-.7,1.56-1.56,1.56H11.56c-.86,0-1.56-.7-1.56-1.56v-.68c0-.86.7-1.56,1.56-1.56Z"/>
    <path class="cls-4" d="M57.28,55.71h12.11c.86,0,1.56.7,1.56,1.56v.68c0,.86-.7,1.56-1.56,1.56h-12.11c-.86,0-1.56-.7-1.56-1.56v-.68c0-.86.7-1.56,1.56-1.56Z"/>
    <path class="cls-2" d="M34.42,55.71h15.92c.86,0,1.56.7,1.56,1.56v.68c0,.86-.7,1.56-1.56,1.56h-15.92c-.86,0-1.56-.7-1.56-1.56v-.68c0-.86.7-1.56,1.56-1.56Z"/>
    <rect class="cls-1" x="10" y="55.71" width="19.05" height="3.81" rx="1.56" ry="1.56"/>
    <path class="cls-4" d="M11.56,70.95h19.73c.86,0,1.56.7,1.56,1.56v.68c0,.86-.7,1.56-1.56,1.56H11.56c-.86,0-1.56-.7-1.56-1.56v-.68c0-.86.7-1.56,1.56-1.56Z"/>
    <rect class="cls-4" x="10" y="40.48" width="22.86" height="3.81" rx="1.56" ry="1.56"/>
    <path class="cls-3" d="M30.61,17.62h38.78c.86,0,1.56.7,1.56,1.56v.68c0,.86-.7,1.56-1.56,1.56H30.61c-.86,0-1.56-.7-1.56-1.56v-.68c0-.86.7-1.56,1.56-1.56Z"/>
    <rect class="cls-2" x="10" y="17.62" width="15.24" height="3.81" rx="1.56" ry="1.56"/>
    <rect class="cls-3" x="25.24" y="78.57" width="7.62" height="3.81" rx="1.56" ry="1.56"/>
    <rect class="cls-1" x="25.24" y="32.86" width="7.62" height="3.81" rx="1.56" ry="1.56"/>
    <rect class="cls-1" x="10" y="78.57" width="11.43" height="3.81" rx="1.56" ry="1.56"/>
    <rect class="cls-3" x="10" y="32.86" width="11.43" height="3.81" rx="1.56" ry="1.56"/>
    <path class="cls-6" d="M61.09,78.57h4.49c.86,0,1.56.7,1.56,1.56v.68c0,.86-.7,1.56-1.56,1.56h-4.49c-.86,0-1.56-.7-1.56-1.56v-.68c0-.86.7-1.56,1.56-1.56Z"/>
    <path class="cls-6" d="M38.23,78.57h15.92c.86,0,1.56.7,1.56,1.56v.68c0,.86-.7,1.56-1.56,1.56h-15.92c-.86,0-1.56-.7-1.56-1.56v-.68c0-.86.7-1.56,1.56-1.56Z"/>
    <path class="cls-6" d="M72.51,78.57h15.92c.86,0,1.56.7,1.56,1.56v.68c0,.86-.7,1.56-1.56,1.56h-15.92c-.86,0-1.56-.7-1.56-1.56v-.68c0-.86.7-1.56,1.56-1.56Z"/>
    <rect class="cls-1" x="40.48" y="48.1" width="34.29" height="3.81" rx="1.56" ry="1.56"/>
    <rect class="cls-3" x="21.43" y="48.1" width="15.24" height="3.81" rx="1.56" ry="1.56"/>
    <rect class="cls-2" x="10" y="48.1" width="7.62" height="3.81" rx="1.56" ry="1.56"/>
    <rect class="cls-4" x="44.29" y="25.24" width="19.05" height="3.81" rx="1.56" ry="1.56"/>
    <rect class="cls-1" x="10" y="25.24" width="30.48" height="3.81" rx="1.56" ry="1.56"/>
    <rect class="cls-3" x="21.43" y="63.33" width="38.1" height="3.81" rx="1.56" ry="1.56"/>
    <rect class="cls-4" x="10" y="63.33" width="7.62" height="3.81" rx="1.56" ry="1.56"/>
    <path class="cls-2" d="M57.28,32.86h19.73c.86,0,1.56.7,1.56,1.56v.68c0,.86-.7,1.56-1.56,1.56h-19.73c-.86,0-1.56-.7-1.56-1.56v-.68c0-.86.7-1.56,1.56-1.56Z"/>
    <path class="cls-3" d="M57.28,40.48h19.73c.86,0,1.56.7,1.56,1.56v.68c0,.86-.7,1.56-1.56,1.56h-19.73c-.86,0-1.56-.7-1.56-1.56v-.68c0-.86.7-1.56,1.56-1.56Z"/>
    <rect class="cls-1" x="10" y="10" width="49.52" height="3.81" rx="1.56" ry="1.56"/>
    <path class="cls-6" d="M64.9,10h23.54c.86,0,1.56.7,1.56,1.56v.68c0,.86-.7,1.56-1.56,1.56h-23.54c-.86,0-1.56-.7-1.56-1.56v-.68c0-.86.7-1.56,1.56-1.56Z"/>
    <path class="cls-6" d="M64.9,63.33h8.3c.86,0,1.56.7,1.56,1.56v.68c0,.86-.7,1.56-1.56,1.56h-8.3c-.86,0-1.56-.7-1.56-1.56v-.68c0-.86.7-1.56,1.56-1.56Z"/>
    <path class="cls-6" d="M80.13,63.33h8.3c.86,0,1.56.7,1.56,1.56v.68c0,.86-.7,1.56-1.56,1.56h-8.3c-.86,0-1.56-.7-1.56-1.56v-.68c0-.86.7-1.56,1.56-1.56Z"/>
    <rect class="cls-6" x="74.76" y="55.71" width="15.24" height="3.81" rx="1.56" ry="1.56"/>
    <path class="cls-6" d="M76.32,17.62h12.11c.86,0,1.56.7,1.56,1.56v.68c0,.86-.7,1.56-1.56,1.56h-12.11c-.86,0-1.56-.7-1.56-1.56v-.68c0-.86.7-1.56,1.56-1.56Z"/>
    <rect class="cls-6" x="78.57" y="48.1" width="11.43" height="3.81" rx="1.56" ry="1.56"/>
    <path class="cls-6" d="M80.13,25.24h8.3c.86,0,1.56.7,1.56,1.56v.68c0,.86-.7,1.56-1.56,1.56h-8.3c-.86,0-1.56-.7-1.56-1.56v-.68c0-.86.7-1.56,1.56-1.56Z"/>
    <path class="cls-6" d="M83.94,32.86h4.49c.86,0,1.56.7,1.56,1.56v.68c0,.86-.7,1.56-1.56,1.56h-4.49c-.86,0-1.56-.7-1.56-1.56v-.68c0-.86.7-1.56,1.56-1.56Z"/>
    <path class="cls-6" d="M83.94,40.48h4.49c.86,0,1.56.7,1.56,1.56v.68c0,.86-.7,1.56-1.56,1.56h-4.49c-.86,0-1.56-.7-1.56-1.56v-.68c0-.86.7-1.56,1.56-1.56Z"/>
    <path class="cls-6" d="M53.47,70.95h34.97c.86,0,1.56.7,1.56,1.56v.68c0,.86-.7,1.56-1.56,1.56h-34.97c-.86,0-1.56-.7-1.56-1.56v-.68c0-.86.7-1.56,1.56-1.56Z"/>
    <path class="cls-6" d="M38.23,70.95h8.3c.86,0,1.56.7,1.56,1.56v.68c0,.86-.7,1.56-1.56,1.56h-8.3c-.86,0-1.56-.7-1.56-1.56v-.68c0-.86.7-1.56,1.56-1.56Z"/>
    <rect class="cls-6" x="67.14" y="86.19" width="22.86" height="3.81" rx="1.56" ry="1.56"/>
    <path class="cls-6" d="M38.23,86.19h23.54c.86,0,1.56.7,1.56,1.56v.68c0,.86-.7,1.56-1.56,1.56h-23.54c-.86,0-1.56-.7-1.56-1.56v-.68c0-.86.7-1.56,1.56-1.56Z"/>
    <path class="cls-6" d="M38.23,32.86h12.11c.86,0,1.56.7,1.56,1.56v.68c0,.86-.7,1.56-1.56,1.56h-12.11c-.86,0-1.56-.7-1.56-1.56v-.68c0-.86.7-1.56,1.56-1.56Z"/>
    <path class="cls-6" d="M38.23,40.48h12.11c.86,0,1.56.7,1.56,1.56v.68c0,.86-.7,1.56-1.56,1.56h-12.11c-.86,0-1.56-.7-1.56-1.56v-.68c0-.86.7-1.56,1.56-1.56Z"/>
  </g>
</svg>