<?xml version="1.0" encoding="UTF-8"?>
<svg id="Layer_1" data-name="Layer 1" xmlns="http://www.w3.org/2000/svg" viewBox="0 0 100 100">
  <defs>
    <style>
      .cls-1 {
        fill: #fff;
      }

      .cls-1, .cls-2, .cls-3 {
        stroke-width: 0px;
      }

      .cls-2 {
        fill: #c69;
      }

      .cls-3 {
        fill: #ed1e79;
      }
    </style>
  </defs>
  <g>
    <rect class="cls-2" x="2" y="2" width="96" height="96" rx="18" ry="18"/>
    <path class="cls-3" d="M80,4c8.82,0,16,7.18,16,16v60c0,8.82-7.18,16-16,16H20c-8.82,0-16-7.18-16-16V20c0-8.82,7.18-16,16-16h60M80,0H20C9,0,0,9,0,20v60c0,11,9,20,20,20h60c11,0,20-9,20-20V20c0-11-9-20-20-20h0Z"/>
  </g>
  <path class="cls-1" d="M50.39,17.19c-18.75,6.45-30.86,19.53-29.69,27.34s12.89,14.06,18.16,18.16h0c-6.84,3.52-15.43,8.79-15.23,15.62.39,9.38,10.55,6.45,14.84,3.71s8.59-10.35,5.86-18.36c6.05-1.56,11.33.39,12.89,1.56,6.05,4.3,2.93,9.18.78,9.96s-.78,1.17.59.78,4.3-2.34,4.3-5.66c0-8.4-8.98-12.3-20.12-9.38-6.45-6.84-15.23-9.96-14.84-17.38.2-2.73,1.17-9.77,18.55-18.55s29.69-5.27,28.13,2.73c-2.34,12.11-23.44,20.31-30.86,13.28-.39-.78-1.76-1.37-.98.78,3.91,9.77,35.55,5.27,36.91-15.43.39-10.94-15.43-13.87-29.3-9.18ZM33.59,79.69c-4.88,1.56-4.69-1.56-4.49-2.73.59-3.32,3.32-7.42,11.52-11.52,2.34,7.42-2.93,13.09-7.03,14.26Z"/>
</svg>