<?xml version="1.0" encoding="UTF-8"?>
<svg id="Layer_1" data-name="Layer 1" xmlns="http://www.w3.org/2000/svg" viewBox="0 0 100 100">
  <defs>
    <style>
      .cls-1, .cls-2 {
        stroke-width: 0px;
      }

      .cls-2 {
        fill: #fff;
      }
    </style>
  </defs>
  <g>
    <rect class="cls-2" x=".5" y=".5" width="99" height="99" rx="29.5" ry="29.5"/>
    <path class="cls-1" d="M70,1c15.99,0,29,13.01,29,29v40c0,15.99-13.01,29-29,29H30c-15.99,0-29-13.01-29-29V30C1,14.01,14.01,1,30,1h40M70,0H30C13.5,0,0,13.5,0,30v40c0,16.5,13.5,30,30,30h40c16.5,0,30-13.5,30-30V30c0-16.5-13.5-30-30-30h0Z"/>
  </g>
  <path class="cls-1" d="M50.61,92.72c9.85-35.19,9.56-35.36,16.67-60.45l1.71.99c.93.53,1.69.09,1.69-.96v-11.98c1.89-6.61,3.37-11.72,3.8-13.25h7.71l12.8,11.86-8.41,7.27,6.36,6.88-41.91,59.65c-.2.34-.49.26-.42,0ZM55.19,16.86c.38,0,.69.21.69.47v6.13c0,.26-.32.47-.69.47h-10.35c-.38,0-.69-.21-.69-.47v-6.13c0-.26.32-.47.69-.47h10.35ZM67.97,10.07l-11.39,6.57c.14.2.21.44.21.68v6.14c0,.31-.12.6-.32.83l11.5,6.64c.78.45,1.43.08,1.43-.82V10.89c0-.91-.65-1.28-1.43-.82h0ZM43.25,23.46v-6.14c0-.24.08-.48.21-.68l-11.41-6.58c-.78-.45-1.43-.08-1.43.82v19.23c0,.9.64,1.29,1.43.82l11.51-6.64c-.21-.23-.32-.53-.32-.83h0ZM48.98,92.72h.42c-9.84-35.19-9.56-35.36-16.67-60.45l-1.71.99c-.93.53-1.69.09-1.69-.96v-11.98c-1.91-6.61-3.38-11.72-3.82-13.25h-7.71l-12.8,11.86,8.41,7.27-6.36,6.88,41.93,59.65ZM49.68,36.74c1.72,0,3.11-1.39,3.11-3.11s-1.39-3.11-3.11-3.11-3.11,1.39-3.11,3.11,1.39,3.11,3.11,3.11h0ZM49.68,55.22c1.72,0,3.11-1.39,3.11-3.11s-1.39-3.11-3.11-3.11-3.11,1.39-3.11,3.11h0c0,1.72,1.39,3.11,3.11,3.11h0ZM49.68,73.71c1.72,0,3.11-1.39,3.11-3.11s-1.39-3.11-3.11-3.11-3.11,1.39-3.11,3.11h0c0,1.72,1.39,3.11,3.11,3.11Z"/>
</svg>