<?xml version="1.0" encoding="UTF-8"?>
<svg id="Layer_1" data-name="Layer 1" xmlns="http://www.w3.org/2000/svg" viewBox="0 0 100 100">
  <defs>
    <style>
      .cls-1, .cls-2 {
        stroke-width: 0px;
      }

      .cls-2 {
        fill: #fff;
      }
    </style>
  </defs>
  <g>
    <rect class="cls-2" x="2" y="2" width="96" height="96" rx="18" ry="18"/>
    <path class="cls-1" d="M80,4c8.82,0,16,7.18,16,16v60c0,8.82-7.18,16-16,16H20c-8.82,0-16-7.18-16-16V20c0-8.82,7.18-16,16-16h60M80,0H20C9,0,0,9,0,20v60c0,11,9,20,20,20h60c11,0,20-9,20-20V20c0-11-9-20-20-20h0Z"/>
  </g>
  <path class="cls-1" d="M50.61,92.72c9.85-35.19,9.56-35.36,16.67-60.45l1.71.99c.93.53,1.69.09,1.69-.96v-11.98c1.89-6.61,3.37-11.72,3.8-13.25h7.71l12.8,11.86-8.41,7.27,6.36,6.88-41.91,59.65c-.2.34-.49.26-.42,0ZM55.19,16.86c.38,0,.69.21.69.47v6.13c0,.26-.32.47-.69.47h-10.35c-.38,0-.69-.21-.69-.47v-6.13c0-.26.32-.47.69-.47h10.35ZM67.97,10.07l-11.39,6.57c.14.2.21.44.21.68v6.14c0,.31-.12.6-.32.83l11.5,6.64c.78.45,1.43.08,1.43-.82V10.89c0-.91-.65-1.28-1.43-.82h0ZM43.25,23.46v-6.14c0-.24.08-.48.21-.68l-11.41-6.58c-.78-.45-1.43-.08-1.43.82v19.23c0,.9.64,1.29,1.43.82l11.51-6.64c-.21-.23-.32-.53-.32-.83h0ZM48.98,92.72h.42c-9.84-35.19-9.56-35.36-16.67-60.45l-1.71.99c-.93.53-1.69.09-1.69-.96v-11.98c-1.91-6.61-3.38-11.72-3.82-13.25h-7.71l-12.8,11.86,8.41,7.27-6.36,6.88,41.93,59.65ZM49.68,36.74c1.72,0,3.11-1.39,3.11-3.11s-1.39-3.11-3.11-3.11-3.11,1.39-3.11,3.11,1.39,3.11,3.11,3.11h0ZM49.68,55.22c1.72,0,3.11-1.39,3.11-3.11s-1.39-3.11-3.11-3.11-3.11,1.39-3.11,3.11h0c0,1.72,1.39,3.11,3.11,3.11h0ZM49.68,73.71c1.72,0,3.11-1.39,3.11-3.11s-1.39-3.11-3.11-3.11-3.11,1.39-3.11,3.11h0c0,1.72,1.39,3.11,3.11,3.11Z"/>
</svg>