<?xml version="1.0" encoding="UTF-8"?>
<svg id="Layer_1" data-name="Layer 1" xmlns="http://www.w3.org/2000/svg" viewBox="0 0 100 100">
  <defs>
    <style>
      .cls-1 {
        fill: #29abe2;
      }

      .cls-1, .cls-2, .cls-3, .cls-4 {
        stroke-width: 0px;
      }

      .cls-2 {
        fill: #1c78c0;
      }

      .cls-3 {
        fill: #fff;
      }

      .cls-4 {
        fill: #8ed6fb;
      }
    </style>
  </defs>
  <g>
    <rect class="cls-3" x="2" y="2" width="96" height="96" rx="18" ry="18"/>
    <path class="cls-1" d="M80,4c8.82,0,16,7.18,16,16v60c0,8.82-7.18,16-16,16H20c-8.82,0-16-7.18-16-16V20c0-8.82,7.18-16,16-16h60M80,0H20C9,0,0,9,0,20v60c0,11,9,20,20,20h60c11,0,20-9,20-20V20c0-11-9-20-20-20h0Z"/>
  </g>
  <g>
    <polygon class="cls-3" points="50 5 89.77 27.5 89.77 72.5 50 95 10.23 72.5 10.23 27.5 50 5"/>
    <path class="cls-4" d="M82.67,70.94l-31.35,17.75v-13.81l19.54-10.76,11.81,6.81ZM84.82,69.01V31.91l-11.47,6.62v23.86l11.47,6.62ZM17.21,70.94l31.35,17.74v-13.81l-19.54-10.75-11.81,6.81h0ZM15.06,69.01V31.91l11.47,6.62v23.86l-11.47,6.62h0ZM16.4,29.51L48.56,11.32v13.36l-20.61,11.33-.17.09-11.39-6.59h0ZM83.47,29.51L51.32,11.32v13.36l20.59,11.35.17.09,11.39-6.6h0Z"/>
    <path class="cls-2" d="M48.56,71.74l-19.27-10.61v-21l19.27,11.12v20.49h0ZM51.32,71.74l19.27-10.6v-21.01l-19.27,11.12v20.49ZM30.58,37.7l19.36-10.64,19.34,10.64-19.34,11.17-19.36-11.17h0Z"/>
  </g>
</svg>